<?xml version="1.0" standalone="no"?>
<!DOCTYPE svg PUBLIC "-//W3C//DTD SVG 1.1//EN" "http://www.w3.org/Graphics/SVG/1.1/DTD/svg11.dtd" >
<svg xmlns="http://www.w3.org/2000/svg">
<metadata>Generated by IcoMoon</metadata>
<defs>
<font id="icbc-icon-font" horiz-adv-x="1024">
<font-face units-per-em="1024" ascent="960" descent="-64" />
<missing-glyph horiz-adv-x="1024" />
<glyph unicode="&#x20;" horiz-adv-x="512" d="" />
<glyph unicode="&#xe900;" glyph-name="account" d="M512 896.001c-259.206 0-469.334-210.128-469.334-469.334s210.128-469.334 469.334-469.334c259.206 0 469.334 210.128 469.334 469.334v0c0 259.206-210.128 469.334-469.334 469.334v0zM512 9.482c-230.405 0-417.185 186.78-417.185 417.185s186.78 417.185 417.185 417.185v0 0c230.405 0 417.185-186.78 417.185-417.185s-186.78-417.185-417.185-417.185v0zM516.171 453.262c-34.419 0-65.706 4.694-65.706 42.24s22.945 52.149 69.879 52.149c1.001 0.014 2.18 0.022 3.361 0.022 26.914 0 52.844-4.204 77.172-11.99l-1.791 0.495v41.719c-11.564 3.968-25.154 7.080-39.181 8.769l-0.974 0.096 16.687 64.141h-43.284l-16.166-62.056c-56.32-1.044-113.684-22.424-113.684-94.389 0-80.309 66.75-85.524 104.296-87.609s65.706-3.65 65.706-44.847-16.166-57.364-77.18-57.364c-31.412 0.496-61.489 5.417-89.888 14.162l2.279-0.605v-42.24c12.411-3.814 27.402-7.095 42.767-9.21l1.558-0.176-18.251-64.141h44.326l14.601 60.491c68.314 0 126.199 27.639 126.199 104.296s-61.535 83.959-102.731 86.045z" />
<glyph unicode="&#xe901;" glyph-name="add" d="M910.78 497.22h-328.227v328.227c0 38.966-31.587 70.553-70.553 70.553s-70.553-31.587-70.553-70.553v-328.227h-328.227c-38.966 0-70.553-31.587-70.553-70.553s31.587-70.553 70.553-70.553h328.227v-328.227c0-38.966 31.587-70.553 70.553-70.553s70.553 31.587 70.553 70.553v328.227h328.227c38.966 0 70.553 31.587 70.553 70.553s-31.587 70.553-70.553 70.553v0z" />
<glyph unicode="&#xe902;" glyph-name="add-circle" d="M692.64 457.978h-146.015v146.015c0 17.281-14.008 31.289-31.289 31.289s-31.289-14.008-31.289-31.289v0-146.015h-146.015c-17.281 0-31.289-14.008-31.289-31.289s14.008-31.289 31.289-31.289h146.015v-146.015c0-17.281 14.008-31.289 31.289-31.289s31.289 14.008 31.289 31.289v0 146.015h146.015c17.281 0 31.289 14.008 31.289 31.289s-14.008 31.289-31.289 31.289v0zM515.334 896.025c-0.058 0-0.127 0-0.196 0-259.207 0-469.336-210.128-469.336-469.336 0-4.767 0.072-9.519 0.212-14.253l-0.016 0.694c10.19-247.694 208.556-445.878 455.378-455.747l0.92-0.030c1.939-0.029 4.227-0.045 6.519-0.045 259.231 0 469.381 210.148 469.381 469.381 0 256.941-206.449 465.662-462.517 469.332l-0.345 0.004zM515.334 9.502c-230.407 0-417.187 186.78-417.187 417.187s186.78 417.187 417.187 417.187c230.407 0 417.187-186.78 417.187-417.187v0c0-230.407-186.78-417.187-417.187-417.187v0z" />
<glyph unicode="&#xe903;" glyph-name="add-circle-fill" d="M515.334 896.025c-0.058 0-0.127 0-0.196 0-259.207 0-469.336-210.128-469.336-469.336 0-4.767 0.072-9.519 0.212-14.253l-0.016 0.694c10.19-247.694 208.556-445.878 455.378-455.747l0.92-0.030c1.939-0.029 4.227-0.045 6.519-0.045 259.231 0 469.381 210.148 469.381 469.381 0 256.941-206.449 465.662-462.517 469.332l-0.345 0.004zM692.64 390.185h-140.8v-140.8c0-20.161-16.343-36.504-36.504-36.504s-36.504 16.343-36.504 36.504v0 140.8h-140.8c-20.161 0-36.504 16.343-36.504 36.504s16.343 36.504 36.504 36.504h140.8v140.8c0 20.161 16.343 36.504 36.504 36.504s36.504-16.343 36.504-36.504v0-140.8h140.8c20.161 0 36.504-16.343 36.504-36.504s-16.343-36.504-36.504-36.504v0z" />
<glyph unicode="&#xe904;" glyph-name="add-product" d="M375.374 897.326h-242.92c-50.311 0-91.095-40.784-91.095-91.095v0-242.92c0-50.311 40.784-91.095 91.095-91.095v0h242.92c50.311 0 91.095 40.784 91.095 91.095v0 242.92c0 50.311-40.784 91.095-91.095 91.095v0zM405.738 563.309c0-16.77-13.595-30.366-30.366-30.366v0h-242.92c-16.77 0-30.366 13.595-30.366 30.366v0 242.92c0 16.77 13.595 30.366 30.366 30.366v0h242.92c16.77 0 30.366-13.595 30.366-30.366v0zM891.579 897.326h-242.92c-50.311 0-91.095-40.784-91.095-91.095v0-242.92c0-50.311 40.784-91.095 91.095-91.095v0h242.92c50.311 0 91.095 40.784 91.095 91.095v0 242.92c0 50.311-40.784 91.095-91.095 91.095v0zM921.945 563.309c0-16.77-13.595-30.366-30.366-30.366v0h-242.92c-16.77 0-30.366 13.595-30.366 30.366v0 242.92c0 16.77 13.595 30.366 30.366 30.366v0h242.92c16.77 0 30.366-13.595 30.366-30.366v0zM375.374 383.548h-242.92c-0.010 0-0.021 0-0.033 0-50.311 0-91.095-40.784-91.095-91.095 0-0.854 0.011-1.706 0.034-2.554l-0.003 0.124v-242.92c0-50.311 40.784-91.095 91.095-91.095v0h242.92c50.311 0 91.095 40.784 91.095 91.095v0 242.92c0.021 0.723 0.033 1.576 0.033 2.429 0 50.311-40.784 91.095-91.095 91.095-0.011 0-0.023 0-0.033 0h0.002zM405.738 47.104c0-16.77-13.595-30.366-30.366-30.366v0h-242.92c-16.77 0-30.366 13.595-30.366 30.366v0 242.92c0.334 16.634 13.731 30.032 30.333 30.365l0.032 0.001h242.92c16.77 0 30.366-13.595 30.366-30.366v0zM926.195 198.322h-131.177v131.177c-1.255 12.012-11.326 21.294-23.564 21.294-0.47 0-0.937-0.013-1.4-0.040l0.064 0.003h-7.895c-12.817-0.34-23.077-10.81-23.077-23.677 0-0.003 0-0.006 0-0.009v0-131.177h-130.57c-10.995-1.409-19.561-10.184-20.64-21.158l-0.008-0.099v-6.074c0-12.745 10.333-23.077 23.077-23.077v0h131.785v-131.785c0-12.745 10.333-23.077 23.077-23.077v0h4.25c0.181-0.006 0.393-0.009 0.607-0.009 12.745 0 23.077 10.333 23.077 23.077 0 0.003 0 0.006 0 0.009v0 129.962h131.177c1.312-0.264 2.817-0.415 4.359-0.415 12.745 0 23.077 10.333 23.077 23.077 0 0.787-0.039 1.567-0.117 2.334l0.009-0.097v6.074c0 0.036 0 0.080 0 0.124 0 13.081-10.603 23.684-23.684 23.684-0.855 0-1.701-0.045-2.533-0.134l0.103 0.010z" />
<glyph unicode="&#xe905;" glyph-name="add-product-filled" d="M133.741 896.001h242.864c50.299 0 91.073-40.776 91.073-91.073v-242.864c0-50.299-40.776-91.073-91.073-91.073h-242.864c-50.299 0-91.073 40.776-91.073 91.073v242.864c0 50.299 40.776 91.073 91.073 91.073zM647.397 896.001h242.864c50.299 0 91.073-40.776 91.073-91.073v-242.864c0-50.299-40.776-91.073-91.073-91.073h-242.864c-50.299 0-91.073 40.776-91.073 91.073v242.864c0 50.299 40.776 91.073 91.073 91.073zM133.741 382.345h242.864c50.299 0 91.073-40.776 91.073-91.073v-242.864c0-50.299-40.776-91.073-91.073-91.073h-242.864c-50.299 0-91.073 40.776-91.073 91.073v242.864c0 50.299 40.776 91.073 91.073 91.073zM771.257 349.558h-7.893c-12.815-0.34-23.071-10.808-23.071-23.671 0-0.003 0-0.006 0-0.009v0-131.147h-130.538c-10.991-1.409-19.557-10.182-20.636-21.153l-0.008-0.099v-6.072c0-12.743 10.329-23.071 23.071-23.071v0h131.753v-131.753c0-12.743 10.329-23.071 23.071-23.071v0h4.25c0.181-0.006 0.393-0.009 0.606-0.009 12.743 0 23.071 10.329 23.071 23.071 0 0.003 0 0.006 0 0.009v0 129.932h131.147c1.31-0.264 2.817-0.415 4.359-0.415 12.743 0 23.071 10.329 23.071 23.071 0 0.787-0.039 1.567-0.117 2.334l0.009-0.097v6.072c0 13.079-10.601 23.68-23.68 23.68v0h-133.574v131.147c-1.255 12.008-11.322 21.288-23.558 21.288-0.47 0-0.935-0.013-1.398-0.040l0.064 0.003z" />
<glyph unicode="&#xe906;" glyph-name="alert" d="M891.826 219.162c-45.323 42.935-76.815 100.061-87.345 164.244l-0.229 1.688v82.965c0.131 3.664 0.207 7.969 0.207 12.29 0 90.436-32.762 173.218-87.062 237.129l0.434-0.524c-27.442 29.015-61.153 51.8-98.995 66.22l-1.831 0.613v11.524c-4.155 54.163-49.127 96.537-103.995 96.537s-99.838-42.374-103.973-96.182l-0.022-0.355v-6.914c-115.23-44.363-191.282-165.93-190.13-324.948v-82.965c-10.354-66.136-41.463-123.649-86.338-167.001l-0.084-0.081c-12.555-14.683-20.197-33.896-20.197-54.893 0-13.128 2.987-25.558 8.318-36.647l-0.22 0.509c13.428-28.801 42.138-48.405 75.424-48.405 0.424 0 0.845 0.003 1.267 0.010l-0.064-0.001h190.705c6.302-63.389 59.353-112.486 123.871-112.486s117.57 49.097 123.83 111.968l0.042 0.518h192.434c46.414 0.471 83.86 38.208 83.86 84.689 0 21.461-7.982 41.058-21.14 55.984l0.079-0.093zM512.721 841.402c22.922-0.367 41.753-17.411 44.91-39.508l0.029-0.247c-14.006 2.943-30.1 4.628-46.587 4.628-1.041 0-2.082-0.007-3.121-0.020l0.158 0.002c-5.945 0.429-12.883 0.674-19.876 0.674s-13.931-0.245-20.803-0.727l0.926 0.053c4.869 20.294 22.86 35.145 44.319 35.145 0.015 0 0.033 0 0.048 0h-0.003zM512.721 18.662c-33.203 0.558-60.475 25.247-65.062 57.257l-0.042 0.358h130.785c-4.661-32.56-32.237-57.35-65.653-57.615h-0.028zM852.649 150.025c-4.117-9.505-13.383-16.052-24.188-16.132h-0.011l-630.882-4.61c-0.242-0.009-0.526-0.012-0.811-0.012-10.47 0-19.458 6.347-23.324 15.404l-0.063 0.165c-1.804 3.441-2.864 7.519-2.864 11.844 0 6.502 2.393 12.444 6.347 16.997l-0.028-0.033c54.687 53.487 91.342 125.213 100.116 205.322l0.135 1.515v83.542c0 169.388 91.608 283.464 230.459 284.616v0c1.823 0.055 3.97 0.086 6.122 0.086 63.192 0 120.065-27.056 159.665-70.218l0.143-0.16c45.616-53.487 73.368-123.417 73.368-199.829 0-3.883-0.072-7.749-0.213-11.596l0.016 0.556v-82.39c10.408-80.872 47.921-151.492 102.985-203.82l0.145-0.138c4.113-4.648 6.625-10.795 6.625-17.53 0-5.014-1.392-9.702-3.811-13.701l0.067 0.119z" />
<glyph unicode="&#xe907;" glyph-name="upward" d="M922.673 896.006h-828.191c-29.090-2.062-51.907-26.169-51.907-55.603 0-1.078 0.031-2.149 0.091-3.212l-0.007 0.147v-6.845c2.062-29.090 26.169-51.907 55.603-51.907 1.078 0 2.149 0.031 3.212 0.091l-0.147-0.007h684.455l-725.523-721.612c-10.256-10.262-16.599-24.436-16.599-40.089s6.343-29.827 16.6-40.090v0c9.577-11.962 24.178-19.558 40.554-19.558 0.181 0 0.362 0.001 0.54 0.003h-0.028c0.057 0 0.126 0 0.196 0 15.479 0 29.371 6.786 38.868 17.545l0.049 0.055 723.567 725.523v-684.455c-0.053-0.901-0.081-1.954-0.081-3.015 0-30.781 24.953-55.734 55.734-55.734 1.061 0 2.114 0.030 3.159 0.088l-0.144-0.007h6.845c29.090 2.062 51.907 26.169 51.907 55.603 0 1.078-0.031 2.149-0.091 3.212l0.007-0.147v828.191c-2.062 29.090-26.169 51.907-55.603 51.907-1.078 0-2.149-0.031-3.212-0.091l0.147 0.007z" />
<glyph unicode="&#xe908;" glyph-name="secure9" d="M769.988 275.832v244.489c0 21.68-17.576 39.256-39.256 39.256v0h-117.765v7.68c-1.992 49.076-41.038 88.417-89.805 90.874l-0.226 0.010c-0.069 0-0.149 0-0.231 0-47 0-85.506-36.358-88.93-82.483l-0.017-0.296v-15.788h-118.191c-21.68 0-39.256-17.576-39.256-39.256v-244.489c0-21.68 17.576-39.256 39.256-39.256v0h415.163c21.583 0.238 39.016 17.671 39.256 39.233v0.023zM467.469 574.51c2.477 28.796 26.292 51.276 55.434 51.628h0.034c46.936 0 55.469-52.908 56.322-59.736v-5.119h-111.791zM310.022 275.832v244.489c0 0.006 0 0.011 0 0.017 0 2.828 2.293 5.119 5.119 5.119 0.15 0 0.298-0.007 0.446-0.019l-0.019 0.001h415.163c2.828 0 5.119-2.293 5.119-5.119v0-244.489c0-2.828-2.293-5.119-5.119-5.119v0h-415.163c-0.127-0.011-0.276-0.017-0.427-0.017-2.828 0-5.119 2.293-5.119 5.119 0 0.007 0 0.012 0 0.018v-0.001zM450.402 460.158c-7.305 0-13.227-5.922-13.227-13.227s5.922-13.227 13.227-13.227c7.305 0 13.227 5.922 13.227 13.227v0c0 7.305-5.922 13.227-13.227 13.227v0zM450.402 508.375c-0.385 0.039-0.829 0.062-1.28 0.062-7.305 0-13.227-5.922-13.227-13.227s5.922-13.227 13.227-13.227c7.283 0 13.192 5.888 13.227 13.162v0.004c0 0.018 0 0.040 0 0.062 0 6.855-5.214 12.491-11.892 13.16l-0.055 0.005zM450.402 363.728c-6.218-1.16-10.862-6.546-10.862-13.014s4.644-11.853 10.779-13l0.081-0.012c0.712-0.136 1.53-0.213 2.366-0.213 7.305 0 13.227 5.922 13.227 13.227s-5.922 13.227-13.227 13.227c-0.836 0-1.655-0.077-2.448-0.227l0.081 0.012zM450.402 411.944c-7.12-0.237-12.8-6.064-12.8-13.22 0-0.003 0-0.005 0-0.008v0c1.16-6.218 6.546-10.862 13.014-10.862s11.853 4.644 13 10.779l0.012 0.081c0 7.305-5.922 13.227-13.227 13.227v0zM450.402 315.513c-7.070 0-12.8-5.732-12.8-12.8v0c-0.136-0.712-0.213-1.53-0.213-2.366 0-7.305 5.922-13.227 13.227-13.227s13.227 5.922 13.227 13.227c0 0.836-0.077 1.655-0.227 2.448l0.012-0.081c0 0.002 0 0.005 0 0.008 0 7.070-5.732 12.8-12.8 12.8-0.15 0-0.299-0.003-0.449-0.008l0.022 0.001zM596.328 460.158c-7.305 0-13.227-5.922-13.227-13.227s5.922-13.227 13.227-13.227v0c7.305 0 13.227 5.922 13.227 13.227s-5.922 13.227-13.227 13.227v0zM596.328 508.375c-7.305 0-13.227-5.922-13.227-13.227s5.922-13.227 13.227-13.227v0c7.305 0 13.227 5.922 13.227 13.227s-5.922 13.227-13.227 13.227v0zM596.328 363.728c-0.712 0.136-1.53 0.213-2.366 0.213-7.305 0-13.227-5.922-13.227-13.227s5.922-13.227 13.227-13.227c0.836 0 1.655 0.077 2.448 0.227l-0.081-0.012c0.712-0.136 1.53-0.213 2.366-0.213 7.305 0 13.227 5.922 13.227 13.227s-5.922 13.227-13.227 13.227c-0.836 0-1.655-0.077-2.448-0.227l0.081 0.012zM596.328 411.944c-7.305 0-13.227-5.922-13.227-13.227v0c0-0.002 0-0.005 0-0.008 0-7.070 5.732-12.8 12.8-12.8 0.15 0 0.299 0.003 0.449 0.008l-0.022-0.001c0.127-0.005 0.276-0.008 0.427-0.008 7.070 0 12.8 5.732 12.8 12.8 0 0.003 0 0.005 0 0.008v0c0 7.305-5.922 13.227-13.227 13.227v0zM596.328 315.513c-0.127 0.005-0.276 0.008-0.427 0.008-7.070 0-12.8-5.732-12.8-12.8 0-0.003 0-0.005 0-0.008v0c0-7.305 5.922-13.227 13.227-13.227v0c7.305 0 13.227 5.922 13.227 13.227v0c0 0.002 0 0.005 0 0.008 0 7.070-5.732 12.8-12.8 12.8-0.15 0-0.299-0.003-0.449-0.008l0.022 0.001zM189.27 713.61c0.001 0 0.003 0 0.004 0 13.903 0 25.174 11.271 25.174 25.174 0 0.15-0.001 0.299-0.004 0.45v-0.023c0.003 0.128 0.004 0.278 0.004 0.43 0 13.668-11.081 24.748-24.748 24.748-0.151 0-0.302-0.001-0.452-0.004h0.023c-0.126 0.003-0.276 0.004-0.427 0.004-13.903 0-25.174-11.271-25.174-25.174 0-0.001 0-0.003 0-0.004v0c0-14.14 11.461-25.601 25.601-25.601v0zM268.635 778.893c14.14 0 25.601 11.461 25.601 25.601v0c0 0.001 0 0.003 0 0.004 0 13.903-11.271 25.174-25.174 25.174-0.15 0-0.299-0.001-0.45-0.004h0.023c-0.128 0.003-0.278 0.004-0.43 0.004-13.668 0-24.748-11.081-24.748-24.748 0-0.151 0.001-0.302 0.004-0.452v0.023c-0.003-0.126-0.004-0.276-0.004-0.427 0-13.903 11.271-25.174 25.174-25.174 0.001 0 0.003 0 0.004 0v0zM360.372 822.841c0.001 0 0.003 0 0.004 0 13.903 0 25.174 11.271 25.174 25.174 0 0.15-0.001 0.299-0.004 0.45v-0.023c0 14.14-11.461 25.601-25.601 25.601s-25.601-11.461-25.601-25.601v0c-0.003-0.131-0.004-0.286-0.004-0.441 0-13.903 11.271-25.174 25.174-25.174 0.301 0 0.602 0.006 0.9 0.015l-0.043-0.001zM459.788 845.456c14.14 0 25.601 11.461 25.601 25.601v0c-1.69 12.648-12.411 22.303-25.389 22.303s-23.697-9.653-25.373-22.172l-0.014-0.131c0-0.001 0-0.003 0-0.004 0-13.988 11.22-25.358 25.151-25.597h0.023zM562.194 845.456c12.648 1.69 22.303 12.411 22.303 25.389s-9.653 23.697-22.172 25.373l-0.131 0.014c-0.001 0-0.003 0-0.004 0-13.988 0-25.358-11.22-25.597-25.151v-0.023c0-14.14 11.461-25.601 25.601-25.601v0zM661.183 822.841c14.14 0 25.601 11.461 25.601 25.601v0c-1.69 12.648-12.411 22.303-25.389 22.303s-23.697-9.653-25.373-22.172l-0.014-0.131c0-0.001 0-0.003 0-0.004 0-13.988 11.22-25.358 25.151-25.597h0.023zM752.92 828.815c-14.14 0-25.601-11.461-25.601-25.601s11.461-25.601 25.601-25.601c14.14 0 25.601 11.461 25.601 25.601v0c0 14.14-11.461 25.601-25.601 25.601v0zM832.284 713.61c14.14 0 25.601 11.461 25.601 25.601v0c-1.69 12.648-12.411 22.303-25.389 22.303s-23.697-9.653-25.373-22.172l-0.014-0.131c0-0.001 0-0.003 0-0.004 0-13.988 11.22-25.358 25.151-25.597h0.023zM831.431 138.865c-12.648-1.69-22.303-12.411-22.303-25.389s9.653-23.697 22.172-25.373l0.131-0.014c0.991-0.136 2.135-0.213 3.298-0.213 14.14 0 25.601 11.461 25.601 25.601s-11.461 25.601-25.601 25.601c-1.163 0-2.307-0.077-3.429-0.228l0.131 0.014zM752.067 74.863c-0.126 0.003-0.276 0.004-0.427 0.004-13.903 0-25.174-11.271-25.174-25.174 0-0.001 0-0.003 0-0.004v0c0-14.14 11.461-25.601 25.601-25.601v0c0.001 0 0.003 0 0.004 0 13.903 0 25.174 11.271 25.174 25.174 0 0.15-0.001 0.299-0.004 0.45v-0.023c0.003 0.128 0.004 0.278 0.004 0.43 0 13.668-11.081 24.748-24.748 24.748-0.151 0-0.302-0.001-0.452-0.004h0.023zM660.33 30.915c-13.903 0-25.174-11.271-25.174-25.174s11.271-25.174 25.174-25.174v0c13.903 0 25.174 11.271 25.174 25.174s-11.271 25.174-25.174 25.174v0zM561.339 8.3c-0.125 0.002-0.275 0.004-0.424 0.004-14.14 0-25.601-11.461-25.601-25.601s11.461-25.601 25.601-25.601c14.14 0 25.601 11.461 25.601 25.601 0 0.148-0.001 0.297-0.004 0.446v-0.022c0 13.903-11.271 25.174-25.174 25.174v0zM459.788 8.3c-0.125 0.002-0.275 0.004-0.424 0.004-14.14 0-25.601-11.461-25.601-25.601s11.461-25.601 25.601-25.601c14.14 0 25.601 11.461 25.601 25.601 0 0.148-0.001 0.297-0.004 0.446v-0.022c-0.235 13.808-11.368 24.939-25.151 25.173h-0.022zM360.372 30.915c-13.903 0-25.174-11.271-25.174-25.174s11.271-25.174 25.174-25.174v0c13.903 0 25.174 11.271 25.174 25.174s-11.271 25.174-25.174 25.174v0zM269.060 74.863c-0.128 0.003-0.278 0.004-0.43 0.004-13.668 0-24.748-11.081-24.748-24.748 0-0.151 0.001-0.302 0.004-0.452v0.023c0-13.903 11.271-25.174 25.174-25.174s25.174 11.271 25.174 25.174v0c0.003 0.128 0.004 0.278 0.004 0.43 0 13.668-11.081 24.748-24.748 24.748-0.151 0-0.302-0.001-0.452-0.004h0.023zM190.124 138.44c-0.125 0.002-0.275 0.004-0.424 0.004-14.14 0-25.601-11.461-25.601-25.601s11.461-25.601 25.601-25.601c14.14 0 25.601 11.461 25.601 25.601 0 0.148-0.001 0.297-0.004 0.446v-0.022c0 13.903-11.271 25.174-25.174 25.174v0z" />
<glyph unicode="&#xe909;" glyph-name="baja" d="M512 896.001c-259.206 0-469.334-210.128-469.334-469.334s210.128-469.334 469.334-469.334c259.206 0 469.334 210.128 469.334 469.334v0c0 259.206-210.128 469.334-469.334 469.334v0zM512 9.482c-230.405 0-417.185 186.78-417.185 417.185s186.78 417.185 417.185 417.185v0 0c230.405 0 417.185-186.78 417.185-417.185s-186.78-417.185-417.185-417.185v0zM597.524 438.661v0c19.349 7.16 35.249 19.86 46.197 36.164l0.214 0.34c10.153 15.807 16.186 35.102 16.186 55.806 0 0.731-0.008 1.46-0.022 2.187l0.002-0.108c0.011 0.575 0.019 1.253 0.019 1.932 0 18.57-5.247 35.914-14.337 50.632l0.238-0.415c-9.227 14.033-21.092 25.568-34.98 34.142l-0.48 0.275c-6.443 4.026-13.953 7.098-21.971 8.786l-0.451 0.079-28.681 6.78h-213.807v-417.185h203.379c0.981-0.025 2.137-0.038 3.295-0.038 18.719 0 36.585 3.653 52.924 10.285l-0.943-0.339c15.717 6.645 29.079 15.996 40.107 27.589l0.047 0.050c10.633 10.703 19.124 23.549 24.766 37.829l0.265 0.759c4.956 13.145 7.823 28.342 7.823 44.208 0 0.225-0.001 0.451-0.002 0.674v-0.034c0.055 1.264 0.086 2.745 0.086 4.235 0 23.341-7.667 44.891-20.621 62.27l0.197-0.275c-14.93 17.302-35.519 29.359-58.863 33.294l-0.584 0.081zM401.967 590.412h112.64c5.148 0.372 11.154 0.583 17.209 0.583s12.062-0.211 18.010-0.628l-0.802 0.045c10.709-1.14 20.438-4.483 29.011-9.568l-0.33 0.182c8.303-4.592 14.908-11.366 19.173-19.556l0.122-0.26c4.64-9.554 7.353-20.781 7.353-32.643 0-0.991-0.019-1.977-0.056-2.959l0.005 0.142c0.17-1.721 0.269-3.718 0.269-5.739 0-18.486-8.151-35.067-21.056-46.347l-0.073-0.061c-17.112-11.125-38.048-17.742-60.528-17.742-3.843 0-7.644 0.193-11.386 0.571l0.472-0.038h-110.033zM600.651 283.26c-14.212-12.689-33.066-20.445-53.732-20.445-1.462 0-2.913 0.038-4.354 0.116l0.202-0.009h-140.8v146.015h128.285c12.008-0.040 23.726-1.177 35.088-3.315l-1.192 0.187c11.031-2.109 20.835-6.105 29.537-11.672l-0.335 0.2c9.433-4.565 17.185-11.314 22.817-19.615l0.128-0.201c4.973-9.031 7.899-19.79 7.899-31.235 0-1.119-0.029-2.233-0.083-3.337l0.007 0.155c0.037-0.874 0.058-1.902 0.058-2.934 0-21.276-9.035-40.441-23.48-53.867l-0.046-0.042z" />
<glyph unicode="&#xe90a;" glyph-name="blocked" d="M511.588 896.001c-259.028-0.235-468.92-210.272-468.92-469.334 0-129.501 52.449-246.75 137.263-331.667l-0.005 0.005c84.953-85.056 202.369-137.67 332.076-137.67 259.206 0 469.334 210.128 469.334 469.334s-210.128 469.334-469.334 469.334c-0.144 0-0.291 0-0.435 0h0.023zM94.403 426.667c0.323 230.16 186.98 416.617 417.185 416.617 104.030 0 199.168-38.077 272.235-101.056l-0.541 0.456-587.71-587.71c-62.853 72.214-101.167 167.227-101.167 271.188 0 0.177 0 0.354 0 0.531v-0.028zM511.588 9.482c-106.311 1.257-203.218 40.51-278.003 104.779l0.576-0.483 586.145 591.881c65.195-74.37 105.831-171.695 108.457-278.449l0.011-0.543c0-230.405-186.78-417.185-417.185-417.185v0z" />
<glyph unicode="&#xe90b;" glyph-name="bullet" d="M768.004 426.667c0-141.386-114.618-256.004-256.004-256.004s-256.004 114.618-256.004 256.004c0 141.386 114.618 256.004 256.004 256.004s256.004-114.618 256.004-256.004z" />
<glyph unicode="&#xe90c;" glyph-name="camera-photo" d="M941.747 676.491c-18.511 19.15-44.429 31.038-73.125 31.038-0.918 0-1.831-0.010-2.745-0.037l0.134 0.004h-140.291c0.001 0.127 0.002 0.28 0.002 0.433 0 22.407-9.355 42.627-24.369 56.975l-0.028 0.026c-14.612 15.053-35.043 24.4-57.652 24.4-0.104 0-0.208 0-0.312-0.001h-261.246c-0.075 0-0.161 0.001-0.246 0.001-22.942 0-43.712-9.324-58.712-24.396l-0.004-0.004c-14.915-14.627-24.216-34.926-24.399-57.4v-0.035h-140.798c-0.331 0.005-0.722 0.008-1.113 0.008-28.683 0-54.591-11.876-73.074-30.982l-0.025-0.026c-19.021-18.999-30.839-45.211-31.005-74.179v-433.097c-0.002-0.178-0.003-0.395-0.003-0.605 0-28.68 11.874-54.586 30.982-73.069l0.025-0.025c18.963-19.165 45.153-31.144 74.142-31.512l0.071-0.001h708.052c0.186-0.002 0.406-0.003 0.627-0.003 28.925 0 55.035 12.081 73.547 31.475l0.039 0.042c18.948 18.856 30.755 44.875 31.004 73.652v433.114c0.023 0.773 0.033 1.677 0.033 2.592 0 27.94-11.274 53.252-29.52 71.629l0.008-0.008zM922.43 171.762v0 0c0.042-0.776 0.061-1.691 0.061-2.606 0-29.758-24.122-53.881-53.881-53.881-0.915 0-1.827 0.025-2.729 0.068l0.127-0.007h-711.609c-0.11-0.001-0.245-0.002-0.374-0.002-13.183 0-25.199 5.022-34.229 13.251l0.042-0.037c-10.081 9.317-16.373 22.607-16.373 37.368 0 1.161 0.041 2.309 0.114 3.45l-0.008-0.155v433.065c-0.008 0.392-0.017 0.854-0.017 1.317 0 14.474 6.046 27.531 15.752 36.788l0.021 0.020c9.664 9.98 23.161 16.194 38.107 16.264h167.746c14.318 0 25.922 11.604 25.922 25.922v0 24.907c-0.010 0.32-0.020 0.697-0.020 1.077 0 8.54 3.51 16.259 9.163 21.793l0.008 0.007c5.572 5.074 13.013 8.179 21.179 8.179 0.596 0 1.187-0.016 1.776-0.048l-0.080 0.005h260.243c0.201 0.007 0.439 0.008 0.678 0.008 8.407 0 16.049-3.292 21.7-8.661l-0.012 0.011c5.363-5.784 8.649-13.554 8.649-22.091 0-0.277-0.005-0.552-0.008-0.824l0.001 0.042v-24.399c0-0.002 0-0.005 0-0.007 0-14.318 11.604-25.922 25.922-25.922 0.178 0 0.357 0.003 0.535 0.008l-0.025-0.001h167.735c14.846-0.215 28.255-6.184 38.138-15.768l-0.013 0.012c9.743-9.902 15.757-23.495 15.757-38.495 0-0.047 0-0.094 0-0.144v0.008zM782.647 578.901c-10.034-10.106-16.233-24.025-16.233-39.394s6.199-29.288 16.238-39.397l-0.005 0.005c9.966-10.126 23.82-16.402 39.14-16.402s29.174 6.276 39.13 16.396l0.008 0.008c10.157 10.047 16.447 23.985 16.447 39.394s-6.289 29.347-16.44 39.387l-0.007 0.007c-10.128 9.766-23.929 15.784-39.14 15.784s-29.010-6.016-39.158-15.801l0.017 0.016zM512.746 599.74c-59.378-0.607-112.9-25.193-151.436-64.518l-0.036-0.037c-38.626-38.4-62.533-91.57-62.533-150.323 0-0.758 0.006-1.521 0.010-2.277l-0.001 0.114c-0.004-0.398-0.006-0.864-0.006-1.334 0-118.184 95.805-213.989 213.989-213.989 59.17 0 112.735 24.015 151.472 62.835l0.005 0.005c38.623 38.326 62.534 91.428 62.534 150.117 0 0.834-0.007 1.667-0.013 2.498l0.002-0.127c0.020 1.060 0.028 2.305 0.028 3.561 0 117.903-95.582 213.482-213.482 213.482-0.19 0-0.38 0-0.569-0.001h0.027zM628.13 271.892c-29.527-29.534-70.32-47.796-115.384-47.796s-85.857 18.266-115.384 47.796v0c-29.21 29.245-47.271 69.623-47.271 114.225 0 0.229 0.001 0.456 0.002 0.687v-0.036c0 0.033 0 0.074 0 0.11 0 44.929 18.045 85.643 47.288 115.287l-0.019-0.019c29.214 29.509 69.734 47.78 114.52 47.78 0.302 0 0.603-0.001 0.909-0.004h-0.045c44.998-0.348 85.687-18.521 115.404-47.798l-0.022 0.021c29.214-29.319 47.273-69.77 47.273-114.435 0-0.331-0.001-0.666-0.004-0.995v0.051c0.008-0.691 0.017-1.509 0.017-2.329 0-44.072-18.096-83.92-47.264-112.518l-0.025-0.025z" />
<glyph unicode="&#xe90d;" glyph-name="card" d="M963.042 564.896l-314.136 314.57c-11.117 11.083-26.396 17.998-43.291 18.198h-0.038c-16.733-0.013-31.963-6.434-43.373-16.94l0.045 0.041-501.318-497.852c-11.243-11.062-18.308-26.34-18.63-43.268l-0.001-0.060c-0.036-0.819-0.057-1.778-0.057-2.744 0-17.829 7.132-33.994 18.7-45.796l-0.011 0.011 270.807-270.375 3.034-2.599 43.328-43.328c11.5-11.779 27.537-19.083 45.279-19.083s33.779 7.304 45.267 19.069l0.011 0.012 494.385 499.586c11.565 11.599 18.716 27.604 18.716 45.279s-7.151 33.68-18.718 45.28l0.002-0.002zM99.926 337.852l503.052 502.618 43.328-43.328-503.485-501.752zM420.563 17.216l-2.599 2.599-190.649 191.081 502.618 502.618 194.115-194.115zM331.358 156.866l242.265 242.434 30.343-30.322-242.265-242.434-30.343 30.322zM376.546 111.594l181.686 181.686 30.332-30.332-181.686-181.686-30.332 30.332z" />
<glyph unicode="&#xe90e;" glyph-name="car-loan" d="M813.919 466.868c-52.339 2.654-100.506 7.963-100.506 64.474s35.273 82.298 106.571 82.298c2.318 0.053 5.048 0.081 7.788 0.081 40.009 0 78.556-6.271 114.712-17.882l-2.651 0.736v59.924c-17.551 6.233-38.089 11.032-59.332 13.527l-1.352 0.129 24.65 97.85h-65.994l-23.896-94.437c-85.713 0-173.323-34.136-173.323-144.122 0-121.741 102.023-130.089 160.428-132.743 52.339-2.654 100.506-6.070 100.506-68.649s-25.033-87.61-117.572-87.61c-49.768 0.403-97.608 7.995-142.738 21.793l3.548-0.936v-62.202c19.54-6.459 42.537-11.528 66.246-14.259l1.642-0.152-23.896-99.369h66.748l22.377 91.783h4.17c103.916 0 192.284 42.099 192.284 156.254 0 123.259-97.85 130.089-160.428 133.499zM504.824 350.817h-435.772c-9.97-0.208-17.995-8.233-18.202-18.184v-0.021c-0.040-0.456-0.063-0.984-0.063-1.516 0-10.056 8.152-18.203 18.203-18.203 0.024 0 0.043 0 0.068 0h435.768c0.115-0.004 0.248-0.006 0.383-0.006 9.847 0 17.826 7.979 17.826 17.826 0 0.136-0.002 0.268-0.007 0.405l0.001-0.022c0.040 0.456 0.063 0.984 0.063 1.516 0 10.056-8.152 18.203-18.203 18.203-0.024 0-0.043 0-0.068 0h0.005zM504.824 260.175h-435.772c-10.056 0-18.203-8.152-18.203-18.203v0c0.208-9.97 8.233-17.995 18.184-18.202h435.79c10.056 0 18.203 8.152 18.203 18.203v0c0.004 0.115 0.006 0.248 0.006 0.383 0 9.847-7.979 17.826-17.826 17.826-0.136 0-0.268-0.002-0.405-0.007l0.022 0.001zM517.336 513.141v51.577c-1.896 24.377-15.052 45.335-34.22 57.849l-0.292 0.179c-46.649 91.021-113.779 88.746-117.195 88.367h-161.186c-60.301 0-105.054-73.578-113.779-87.99-19.44-11.64-32.617-32.009-34.121-55.545l-0.008-0.202v-53.477l-2.277-2.654c-2.866-3.352-4.61-7.736-4.61-12.535 0-0.528 0.024-1.048 0.062-1.568l-0.007 0.070v-32.617c-0.035-0.44-0.056-0.953-0.056-1.475 0-4.922 1.736-9.442 4.632-12.973l-0.027 0.038c0.088-0.282 0.136-0.612 0.136-0.95s-0.050-0.664-0.139-0.97l0.008 0.024v-28.825c0-0.002 0-0.004 0-0.006 0-9.501 7.594-17.228 17.048-17.442l0.022-0.001h51.577c9.47 0.215 17.064 7.942 17.064 17.443 0 0.002 0 0.004 0 0.007v0 26.55l47.030 11.756c2.156 0.177 4.669 0.28 7.208 0.28s5.048-0.103 7.533-0.296l-0.328 0.023h168.012c2.164 0.264 4.664 0.416 7.208 0.416s5.045-0.152 7.503-0.444l-0.296 0.027 50.441-12.517v-27.689c0-0.002 0-0.004 0-0.006 0-9.501 7.594-17.228 17.048-17.442l0.022-0.001h50.823c9.55 0.207 17.24 7.896 17.448 17.428l0.001 0.021v30.343c3.141 3.373 5.064 7.912 5.064 12.904 0 0.799-0.050 1.588-0.146 2.36l0.008-0.091v34.136c0.022 0.328 0.031 0.712 0.031 1.096 0 4.984-1.881 9.525-4.977 12.952l0.015-0.018zM506.719 497.21v-37.929c-3.343-3.416-5.405-8.097-5.405-13.257 0-0.674 0.037-1.336 0.104-1.992l-0.008 0.083v-28.066h-49.305v29.204c-0.107 9.184-6.479 16.852-15.033 18.936l-0.136 0.026-48.923 11c-2.785 0.265-6.023 0.421-9.29 0.421s-6.505-0.152-9.703-0.451l0.408 0.030h-168.012c-2.785 0.265-6.023 0.421-9.29 0.421s-6.505-0.152-9.703-0.451l0.408 0.030-45.513-10.617c-7.208 0-15.172-3.416-15.172-11.379v-34.136h-49.305v27.305c0.035 0.44 0.056 0.953 0.056 1.475 0 4.922-1.736 9.442-4.632 12.973l0.027-0.038v37.929l2.277 2.277c2.608 3.355 4.184 7.631 4.184 12.273 0 0.216-0.005 0.439-0.008 0.653l0.001-0.032v50.441c0.52 19.041 11.136 35.488 26.665 44.236l0.264 0.136h2.654v2.277s45.513 81.162 100.506 81.162h160.809c2.277 0 60.681 0 102.023-80.781v-2.654h2.277c16.664-9.918 27.737-27.715 28.065-48.121l0.001-0.046v-46.649c-0.008-0.222-0.011-0.487-0.011-0.745 0-5.032 1.72-9.657 4.6-13.334l-0.037 0.046h2.654zM196.103 548.79l-60.301 21.619c-2.984 1.16-6.44 1.832-10.052 1.832s-7.064-0.674-10.247-1.899l0.196 0.067c-5.982-3.659-9.976-10.057-10.238-17.41l-0.002-0.039v-13.656c0.3-7.16 3.608-13.486 8.687-17.798l0.037-0.028c5.022-3.808 11.312-6.19 18.147-6.445l0.056-0.003h51.961c7.256 0.007 13.593 3.928 17.016 9.768l0.052 0.092 2.654 5.688c0.691 1.576 1.093 3.416 1.093 5.351 0 5.894-3.734 10.912-8.961 12.824l-0.094 0.030zM193.072 535.139l-2.277-5.688c-1.448-2.115-3.758-3.544-6.412-3.789l-0.035-0.004h-51.961c-4.095 0.227-7.861 1.464-11.097 3.471l0.103-0.056c-2.090 2.333-3.476 5.342-3.786 8.664l-0.007 0.059v13.656c0.216 2.897 1.816 5.379 4.136 6.808l0.040 0.024c0.911 0.232 1.96 0.36 3.032 0.36s2.12-0.134 3.124-0.379l-0.088 0.020h3.793l60.301-21.241s0 0 0 0zM438.832 570.407l-59.924-21.619c-3.735-1.144-6.648-3.93-7.939-7.499l-0.024-0.087c-0.798-1.544-1.269-3.371-1.269-5.308s0.471-3.767 1.299-5.375l-0.030 0.067 2.277-5.688c3.099-6.544 9.521-11.059 17.028-11.377l0.040-0.002h51.961c7.028 0.172 13.464 2.568 18.664 6.504l-0.081-0.056c4.902 4.443 8.052 10.743 8.344 17.774l0.003 0.052v13.656c-0.332 7.368-4.305 13.736-10.152 17.393l-0.088 0.055c-2.994 1.084-6.449 1.713-10.052 1.713s-7.057-0.629-10.264-1.781l0.213 0.068zM457.415 536.278c-0.368-3.432-1.896-6.456-4.169-8.723l-0.001-0.001c-3.102-2.061-6.894-3.321-10.975-3.415l-0.024-0.001h-51.2c-2.6 0.183-4.82 1.643-6.049 3.755l-0.021 0.038-2.654 5.688 60.301 21.241h3.793c0.966 0.308 2.072 0.485 3.224 0.485s2.261-0.177 3.304-0.504l-0.077 0.024c2.206-1.592 3.74-3.997 4.167-6.771l0.008-0.056zM424.799 619.713c-3.816 6.072-7.561 11.267-11.606 16.216l0.227-0.285c-14.808 17.416-36.029 29.001-59.97 31.078l-0.331 0.024h-125.915c-25.525-0.936-48.149-12.607-63.619-30.601l-0.099-0.119c-4.589-4.758-8.616-10.106-11.928-15.913l-0.206-0.392-5.308-9.101h284.446zM168.037 622.368c1.5 2.28 3.128 4.264 4.931 6.070v0c13.517 14.985 32.648 24.692 54.045 25.785l0.186 0.008h125.915c20.714-2.506 38.713-12.527 51.497-27.209l0.085-0.098 3.793-5.308z" />
<glyph unicode="&#xe90f;" glyph-name="check" d="M346.33 85.335c-13.976 0.456-26.392 6.791-34.918 16.591l-0.051 0.056-249.754 249.754c-9.24 8.81-14.984 21.219-14.984 34.968s5.746 26.152 14.968 34.95l0.021 0.019c8.81 9.24 21.219 14.984 34.968 14.984s26.152-5.746 34.95-14.968l0.019-0.021 214.789-215.621 547.796 546.963c8.81 9.24 21.219 14.984 34.968 14.984s26.152-5.746 34.95-14.968l0.019-0.021c8.248-8.648 13.32-20.379 13.32-33.303 0-13.75-5.746-26.152-14.968-34.95l-0.021-0.019-582.762-582.762c-8.81-9.24-21.219-14.984-34.968-14.984v0z" />
<glyph unicode="&#xe910;" glyph-name="check-circle" d="M710.164 595.106l-302.46-301.939-117.855 118.376c-4.113 2.563-9.106 4.081-14.454 4.081-15.264 0-27.639-12.375-27.639-27.639 0-4.946 1.299-9.588 3.575-13.606l-0.072 0.138 137.671-137.671c5.143-4.978 12.092-8.117 19.773-8.343l0.043-0.001c7.563 0.2 14.355 3.353 19.292 8.342l321.235 321.235c5.008 5.004 8.107 11.917 8.107 19.555s-3.098 14.553-8.107 19.555v0c-4.791 4.69-11.357 7.583-18.598 7.583-8.238 0-15.6-3.745-20.478-9.625l-0.035-0.044zM512 896.001c-259.206 0-469.334-210.128-469.334-469.334s210.128-469.334 469.334-469.334c259.206 0 469.334 210.128 469.334 469.334v0c0 259.206-210.128 469.334-469.334 469.334v0zM512 9.482c-230.405 0-417.185 186.78-417.185 417.185s186.78 417.185 417.185 417.185v0 0c230.405 0 417.185-186.78 417.185-417.185s-186.78-417.185-417.185-417.185v0z" />
<glyph unicode="&#xe911;" glyph-name="check-circle-fill" d="M512 896.001c-259.206 0-469.334-210.128-469.334-469.334s210.128-469.334 469.334-469.334c259.206 0 469.334 210.128 469.334 469.334v0c0 259.206-210.128 469.334-469.334 469.334v0zM752.404 564.338l-321.233-321.754c-5.997-5.808-14.183-9.388-23.206-9.388s-17.208 3.579-23.215 9.397l0.010-0.009-137.671 138.193c-5.776 5.915-9.339 14.014-9.339 22.945s3.564 17.030 9.346 22.952l-0.007-0.007c5.997 5.808 14.183 9.388 23.206 9.388s17.208-3.579 23.215-9.397l-0.010 0.009 114.205-114.205 297.766 297.766c5.884 6.060 14.106 9.82 23.206 9.82s17.324-3.76 23.199-9.811l0.008-0.009c6.188-5.818 10.043-14.056 10.043-23.196 0-8.885-3.642-16.919-9.515-22.691l-0.005-0.005z" />
<glyph unicode="&#xe912;" glyph-name="check-perfil" d="M760.655 125.48l-28.49 27.971-30.562-31.079 59.051-58.533 116.548 117.584-31.079 30.562-85.469-86.504zM918.124 271.035c25.837 54.529 40.922 118.472 40.922 185.937 0 0.19 0 0.38 0 0.57v-0.030c0 0.117 0 0.255 0 0.394 0 252.035-204.315 456.35-456.35 456.35s-456.35-204.315-456.35-456.35c0-139.137 62.268-263.73 160.457-347.434l0.639-0.531 7.252-5.698c19.864-16.467 42.079-31.575 65.668-44.486l2.189-1.097 36.26-18.13 19.165-7.77 19.684-6.734 20.719-6.734 19.684-5.18 20.719-4.144 23.827-3.626h17.094c14.503 0 28.49 0 42.993 0 42.067 0.116 82.72 5.971 121.28 16.822l-3.178-0.764c35.986-50.664 94.449-83.322 160.54-83.322 108.424 0 196.319 87.894 196.319 196.319 0 55.214-22.794 105.105-59.485 140.776l-0.046 0.045zM206.404 171.062c-73.949 74.811-119.628 177.703-119.628 291.264 0 228.863 185.53 414.393 414.393 414.393s414.393-185.53 414.393-414.393c0-1.693-0.011-3.384-0.031-5.072l0.003 0.257c0-0.125 0-0.273 0-0.421 0-57.453-11.81-112.148-33.135-161.789l1.019 2.669c-6.709 4.080-14.702 8.237-22.968 11.889l-1.378 0.543h-4.662c-7.885 3.422-17.23 6.453-26.907 8.606l-1.065 0.199h-9.841c-10.356 2.146-22.325 3.458-34.571 3.624l-0.134 0.002c-17.005-0.1-33.397-2.552-48.922-7.048l1.266 0.314c-34.856 47.413-82.726 83.414-138.34 102.975l-2.036 0.624c54.998 33.472 91.166 93.093 91.166 161.161 0 103.846-84.185 188.031-188.031 188.031s-188.031-84.185-188.031-188.031c0-68.069 36.169-127.689 90.337-160.691l0.83-0.469c-105.981-38.44-182.498-133.354-193.634-247.433l-0.095-1.203zM501.658 440.418h-9.841c-77.384 2.729-139.081 66.118-139.081 143.917 0 79.53 64.472 144.002 144.002 144.002s144.002-64.472 144.002-144.002c0-77.799-61.697-141.189-138.832-143.911l-0.249-0.007zM616.135 236.847c-5.624-8.421-10.988-18.112-15.543-28.245l-0.514-1.28v-5.18c-3.211-7.703-6.233-17.038-8.538-26.651l-0.267-1.32c-0.115-1.396-0.181-3.021-0.181-4.662s0.066-3.266 0.194-4.874l-0.013 0.212c-2.146-10.509-3.458-22.661-3.624-35.087l-0.002-0.136c0.105-13.632 1.61-26.852 4.375-39.602l-0.231 1.27c1.648-7.912 3.613-14.678 6.028-21.224l-0.331 1.023c1.464-5.783 3.059-10.616 4.946-15.302l-0.284 0.797c-29.061-7.499-62.439-11.84-96.818-11.914h-0.046c-12.949 0-25.381 0-38.331 0h-14.503l-22.273 3.108-21.238 7.77-18.648 5.18-17.611 5.18-19.684 7.252-15.022 5.698c-25.301 10.946-46.911 22.901-67.207 36.649l1.422-0.908-4.662 3.108-19.165 14.503c0 5.18 0 10.36 0 15.54 0.544 135.185 108.664 244.938 243.16 248.112l0.295 0.006h9.841c76.671-0.931 144.85-36.496 189.742-91.745l0.36-0.458c-5.653-2.98-10.395-5.9-14.933-9.092l0.429 0.286-6.734-4.144c-9.666-6.778-18.113-13.581-26.088-20.889l0.188 0.17-5.18-5.698c-6.045-6.378-11.664-13.312-16.719-20.662l-0.375-0.576c-2.246-1.938-4.278-3.97-6.153-6.141l-0.063-0.075zM780.856-22.148c-0.078 0-0.171 0-0.263 0-61.196 0-113.96 36.095-138.167 88.156l-0.392 0.939s0 3.626 0 5.698c-2.913 6.767-5.416 14.743-7.112 23.012l-0.14 0.815v7.252c-1.566 8.055-2.504 17.357-2.59 26.863l-0.001 0.073c0.101 9.954 1.039 19.618 2.747 29.013l-0.157-1.040c0 3.108 0 5.698 0 8.806 1.642 6.854 3.596 12.728 5.984 18.373l-0.286-0.762c0.999 3.375 2.232 6.294 3.743 9.039l-0.118-0.233c2.727 6.541 5.851 12.165 9.516 17.382l-0.192-0.287 3.626 6.734c5.382 7.499 10.993 14.096 17.095 20.203l-0.001-0.001 4.662 4.144c4.716 4.436 9.782 8.68 15.083 12.625l0.456 0.325 9.324 5.698c4.034 3.030 8.646 5.642 13.578 7.625l0.408 0.145 10.878 4.662c15.281 6.411 33.010 10.36 51.596 10.873l0.203 0.005c10.432-0.263 20.424-1.383 30.134-3.293l-1.126 0.185h7.77c7.624-1.745 14.196-3.88 20.504-6.521l-0.82 0.305 8.806-3.626 15.54-8.806 9.324-6.216c38.711-27.97 63.611-72.981 63.611-123.807 0-84.107-68.182-152.289-152.289-152.289-0.511 0-1.020 0.003-1.529 0.008l0.078-0.001z" />
<glyph unicode="&#xe913;" glyph-name="chevron-left" d="M763.109 70.933l-357.618 358.173 353.181 353.181c12.061 12.061 19.521 28.724 19.521 47.128 0 36.809-29.84 66.649-66.649 66.649-18.405 0-35.066-7.46-47.128-19.521l-400.311-400.311c-12.090-12.047-19.57-28.715-19.57-47.128s7.48-35.080 19.568-47.126l404.748-404.748c11.997-12.233 28.661-19.849 47.107-19.96h0.021c35.468 1.968 63.484 31.208 63.484 66.99 0 16.825-6.194 32.203-16.425 43.98l0.070-0.082z" />
<glyph unicode="&#xe914;" glyph-name="chevron-right" d="M761.549 469.843l-404.636 405.191c-12.057 12.057-28.716 19.515-47.116 19.515-36.799 0-66.631-29.832-66.631-66.631 0-18.4 7.458-35.058 19.515-47.116v0l358.075-357.522-353.642-353.642c-10.16-11.691-16.351-27.066-16.351-43.886 0-35.774 28.008-65.007 63.293-66.966l0.174-0.008c18.46 0.111 35.123 7.726 47.104 19.945l0.011 0.011 400.203 397.431c11.92 12.017 19.288 28.567 19.288 46.837s-7.366 34.82-19.291 46.842l0.005-0.005z" />
<glyph unicode="&#xe915;" glyph-name="clip" d="M713.615 573.762v0c0 15.579-12.63 28.209-28.209 28.209v0c-0.002 0-0.004 0-0.007 0-15.261 0-27.633-12.372-27.633-27.633 0-0.202 0.002-0.404 0.007-0.607l-0.001 0.031h-1.727v-402.986c0-80.44-65.211-145.651-145.651-145.651s-145.651 65.211-145.651 145.651v0 586.634c0 51.507 41.755 93.262 93.262 93.262s93.262-41.755 93.262-93.262v0-450.769c0-26.072-21.134-47.207-47.207-47.207s-47.207 21.134-47.207 47.207v0 265.396c0 15.897-12.888 28.784-28.784 28.784s-28.784-12.888-28.784-28.784v0 0-267.122c-0.075-1.46-0.117-3.172-0.117-4.893 0-56.976 46.189-103.165 103.165-103.165 55.255 0 100.366 43.44 103.040 98.032l0.010 0.24s0 0 0 3.455v458.829c-12.879 70.661-73.955 123.526-147.378 123.526s-134.499-52.865-147.238-122.61l-0.138-0.916v-598.723c-0.154-0.865-0.242-1.863-0.242-2.879s0.088-2.012 0.257-2.982l-0.014 0.103c11.248-101.944 96.905-180.531 200.918-180.531 111.599 0 202.068 90.469 202.068 202.068 0 0.118 0 0.238 0 0.357v-0.018 402.986z" />
<glyph unicode="&#xe916;" glyph-name="close" d="M954.633 116.486l-309.504 309.504 309.504 310.856c17.295 17.295 27.991 41.188 27.991 67.577 0 52.781-42.788 95.57-95.57 95.57-26.392 0-50.284-10.697-67.577-27.991v0l-306.802-313.56-310.856 310.856c-17.295 17.295-41.188 27.991-67.577 27.991-52.781 0-95.57-42.788-95.57-95.57 0-26.392 10.697-50.284 27.991-67.577l310.856-310.856-308.153-306.802c-17.295-17.295-27.991-41.188-27.991-67.577 0-52.781 42.788-95.57 95.57-95.57 26.392 0 50.284 10.697 67.577 27.991v0l310.856 309.504 306.802-306.802c17.295-17.295 41.188-27.991 67.577-27.991 52.781 0 95.57 42.788 95.57 95.57 0 26.392-10.697 50.284-27.991 67.577v0z" />
<glyph unicode="&#xe917;" glyph-name="close-circle" d="M553.719 432.926l104.296 104.296c5.686 5.665 9.203 13.503 9.203 22.164s-3.517 16.497-9.202 22.163l-0.001 0.001c-5.605 5.816-13.462 9.427-22.164 9.427s-16.557-3.612-22.154-9.417l-0.010-0.010-101.689-102.731-104.296 104.296c-5.672 5.672-13.508 9.181-22.164 9.181-17.31 0-31.343-14.033-31.343-31.343 0-8.656 3.509-16.49 9.181-22.164l104.296-104.296-104.296-104.296c-5.672-5.672-9.181-13.508-9.181-22.164 0-17.31 14.033-31.343 31.343-31.343 8.656 0 16.49 3.509 22.164 9.181l104.296 104.296 104.296-104.296c5.406-4.58 12.461-7.363 20.163-7.363 17.281 0 31.289 14.008 31.289 31.289 0 7.574-2.692 14.519-7.168 19.932l0.042-0.053zM512 896.001c-259.206 0-469.334-210.128-469.334-469.334s210.128-469.334 469.334-469.334c259.206 0 469.334 210.128 469.334 469.334v0c0 259.206-210.128 469.334-469.334 469.334v0zM512 9.482c-230.405 0-417.185 186.78-417.185 417.185s186.78 417.185 417.185 417.185v0 0c230.405 0 417.185-186.78 417.185-417.185s-186.78-417.185-417.185-417.185v0z" />
<glyph unicode="&#xe918;" glyph-name="close-circle-fill" d="M512 896.001c-259.206 0-469.334-210.128-469.334-469.334s210.128-469.334 469.334-469.334c259.206 0 469.334 210.128 469.334 469.334v0c0 259.206-210.128 469.334-469.334 469.334v0zM661.144 282.217c-6.631-6.761-15.86-10.951-26.069-10.951-0.002 0-0.004 0-0.006 0v0c-0.044 0-0.097 0-0.149 0-9.999 0-19.019 4.201-25.388 10.935l-0.015 0.016-97.516 99.081-99.604-99.081c-6.567-6.897-15.82-11.187-26.074-11.187s-19.505 4.289-26.059 11.171l-0.013 0.014c-7.036 6.501-11.428 15.774-11.428 26.074s4.39 19.573 11.404 26.053l0.024 0.022 99.604 98.56-101.167 98.039c-6.625 6.719-10.771 15.895-10.95 26.039l-0.001 0.033c0 0.067-0.001 0.145-0.001 0.225 0 10.14 4.194 19.301 10.943 25.84l0.010 0.010c6.632 6.765 15.863 10.956 26.074 10.956s19.443-4.192 26.068-10.95l0.006-0.007 101.167-98.56 97.516 98.56c6.567 6.897 15.82 11.187 26.074 11.187s19.505-4.289 26.059-11.171l0.013-0.014c6.444-6.421 10.433-15.305 10.433-25.12 0-0.152-0.001-0.303-0.003-0.454v0.023c0-0.032 0-0.068 0-0.104 0-10.084-3.974-19.239-10.442-25.983l0.012 0.012-97.516-98.039 99.604-100.125c5.836-6.373 9.411-14.902 9.411-24.263 0-10.653-4.63-20.224-11.984-26.811l-0.033-0.031z" />
<glyph unicode="&#xe919;" glyph-name="conatct" d="M828.073 591.049v3.043c-8.303 167.417-145.479 300.166-313.925 301.358l-0.118 0.001c-294.763-10.146-316.578-296.793-316.578-301.359v-3.043c-42.776-10.241-74.084-48.152-74.084-93.376 0-0.526 0.005-1.052 0.012-1.576l-0.001 0.078v-144.591c3.734-49.6 44.896-88.428 95.126-88.428s91.392 38.829 95.107 88.108l0.019 0.319v144.591c0.009 0.476 0.013 1.039 0.013 1.601 0 44.586-30.27 82.102-71.382 93.116l-0.673 0.154c7.455 144.536 125.873 259.062 271.307 260.264l0.119 0.001c0.232 0.001 0.508 0.001 0.782 0.001 144.501 0 262.43-113.771 269.099-256.623l0.022-0.599v-3.043c-42.035-10.995-72.55-48.633-72.55-93.399 0-0.162 0-0.322 0.001-0.484v0.025-144.591c2.978-37.901 27.243-69.472 60.733-82.97l0.654-0.232c-28.124-82.835-90.604-147.474-170.017-177.918l-1.97-0.664c-14.876 34.855-48.858 58.839-88.44 58.839-52.957 0-95.886-42.929-95.886-95.886s42.929-95.886 95.886-95.886c50.104 0 91.231 38.428 95.518 87.42l0.026 0.363c100.914 35.454 178.038 115.749 208.416 216.326l0.605 2.336c45.765 5.181 81.46 42.095 84.708 87.974l0.017 0.303v143.576c0.004 0.32 0.007 0.699 0.007 1.079 0 44.864-30.489 82.608-71.879 93.64l-0.676 0.153zM513.017 1.015c-28.020 0-50.733 22.714-50.733 50.733s22.714 50.733 50.733 50.733c28.020 0 50.733-22.714 50.733-50.733v0c0-28.020-22.714-50.733-50.733-50.733v0z" />
<glyph unicode="&#xe91a;" glyph-name="contacts-calendar" d="M378.829 213.964h329.516c0.865-0.088 1.868-0.138 2.884-0.138 16.725 0 30.284 13.559 30.284 30.284 0 0.049 0 0.098 0 0.144v-0.008 23.794c-0.124 76.207-43.22 142.319-106.345 175.414l-1.091 0.52c26.191 24.188 42.538 58.704 42.538 97.038 0 72.874-59.076 131.95-131.95 131.95-72.513 0-131.367-58.495-131.947-130.871v-0.055c-0.002-0.253-0.003-0.55-0.003-0.848 0-37.941 16.371-72.058 42.434-95.674l0.109-0.098c-65.397-33.413-109.432-100.234-109.599-177.354v-23.817c0-0.041 0-0.089 0-0.138 0-16.725 13.559-30.284 30.284-30.284 1.016 0 2.019 0.051 3.009 0.147l-0.125-0.011zM545.391 624.239c42.35-4.080 75.197-39.483 75.197-82.56s-32.846-78.481-74.859-82.534l-0.338-0.027c-2.315-0.23-5.004-0.361-7.724-0.361-45.796 0-82.919 37.124-82.919 82.919s37.124 82.919 82.919 82.919c2.72 0 5.41-0.131 8.061-0.386l-0.338 0.027zM394.692 268.042c-0.23 3.095-0.361 6.704-0.361 10.343 0 82.033 66.501 148.535 148.535 148.535s148.535-66.501 148.535-148.535c0-3.64-0.131-7.248-0.387-10.822l0.028 0.479v-5.047h-296.348zM892.213 896.793h-697.248c-0.003 0-0.006 0-0.009 0-16.473 0-29.871-13.15-30.274-29.525l-0.001-0.037v-136.277h-26.678c-0.003 0-0.006 0-0.009 0-17.267 0-31.314-13.796-31.718-30.968l-0.001-0.037c0-17.522 14.203-31.725 31.725-31.725h26.678v-121.856h-26.678c-1.433 0.23-3.086 0.361-4.77 0.361-17.522 0-31.725-14.203-31.725-31.725s14.203-31.725 31.725-31.725c1.684 0 3.337 0.131 4.947 0.384l-0.179-0.023h26.678v-121.856h-26.678c-17.522 0-31.725-14.203-31.725-31.725s14.203-31.725 31.725-31.725v0h26.678v-122.578h-26.678c-17.522 0-31.725-14.203-31.725-31.725s14.203-31.725 31.725-31.725v0h26.678v-126.182c0-0.003 0-0.006 0-0.010 0-16.327 13.235-29.563 29.563-29.563 0.253 0 0.506 0.003 0.759 0.010l-0.037-0.001h697.248c0.214-0.006 0.468-0.010 0.72-0.010 16.327 0 29.563 13.235 29.563 29.563 0 0.003 0 0.007 0 0.010v0 881.115c-0.404 16.412-13.804 29.563-30.275 29.563-0.003 0-0.007 0-0.010 0v0zM848.95 31.54h-615.049v82.199h25.237c17.522 0 31.725 14.203 31.725 31.725s-14.203 31.725-31.725 31.725v0h-25.237v121.135h25.237c1.433-0.23 3.086-0.361 4.77-0.361 17.522 0 31.725 14.203 31.725 31.725s-14.203 31.725-31.725 31.725c-1.684 0-3.337-0.131-4.947-0.384l0.179 0.023h-25.237v122.578h25.237c17.522 0 31.725 14.203 31.725 31.725s-14.203 31.725-31.725 31.725h-25.237v121.135h25.237c17.522 0 31.725 14.203 31.725 31.725s-14.203 31.725-31.725 31.725h-25.237v93.014h615.049z" />
<glyph unicode="&#xe91b;" glyph-name="date-picker" d="M928.13 687.592v3.754c0.001 0.152 0.001 0.331 0.001 0.511 0 32.447-13.421 61.76-35.015 82.69l-0.031 0.030c-21.228 21.032-50.359 34.119-82.546 34.418h-94.551v51.939c-0.005 10.022-4.069 19.091-10.638 25.657v0c-5.97 5.82-14.137 9.41-23.145 9.41-0.444 0-0.885-0.009-1.324-0.026l0.063 0.002c-8.638-0.98-16.226-4.863-21.898-10.634l-0.005-0.006c-5.819-6.238-9.39-14.64-9.39-23.875 0-0.187 0.002-0.373 0.005-0.56v0.029-51.939h-273.467v56.32c-0.661 17.105-14.686 30.72-31.892 30.72-0.669 0-1.331-0.020-1.991-0.061l0.090 0.005h-4.381c-16.888-1.309-30.097-15.337-30.097-32.448 0-0.693 0.022-1.38 0.064-2.062l-0.005 0.094v-51.939h-97.622c-32.884-1.23-62.113-15.919-82.506-38.689l-0.098-0.11c-19.793-21.179-31.947-49.717-31.947-81.094 0-0.971 0.011-1.939 0.034-2.904l-0.003 0.143v-612.641c0.356-64.705 52.891-117.021 117.646-117.021 0.001 0 0.001 0 0.002 0h600.123c63.641 1.712 114.579 53.712 114.579 117.608 0 1.334-0.022 2.664-0.066 3.988l0.006-0.192v608.885zM214.74 738.905h93.241v-56.32c1.006-16.95 14.846-30.353 31.885-30.662h6.288c8.803 0.789 16.499 4.975 21.866 11.221l0.036 0.043c5.085 5.545 8.201 12.968 8.201 21.118 0 0.715-0.024 1.427-0.072 2.131l0.006-0.096v52.566h271.589v-56.32c0.717-8.821 4.922-16.539 11.217-21.863l0.047-0.038c5.343-5.456 12.787-8.838 21.020-8.838 0.752 0 1.496 0.029 2.233 0.083l-0.099-0.006h4.381c16.888 1.309 30.097 15.337 30.097 32.448 0 0.693-0.022 1.38-0.064 2.062l0.005-0.094v52.566h98.873c25.363-1.932 45.211-22.987 45.211-48.678 0-1.369-0.055-2.723-0.166-4.063l0.011 0.176v-122.028h-696.494v125.155c-0.169 0.753-0.267 1.617-0.267 2.503s0.098 1.75 0.281 2.583l-0.014-0.078c2.299 25.027 23.187 44.475 48.617 44.475 0.728 0 1.453-0.015 2.172-0.048l-0.102 0.004zM811.109 26.766h-602.001c-13.458 0.827-25.351 6.921-33.754 16.226l-0.038 0.043c-7.308 8.724-11.746 20.067-11.746 32.447 0 2.46 0.175 4.88 0.515 7.249l-0.033-0.272v411.765h695.869v-414.892c0.144-0.847 0.228-1.821 0.228-2.816s-0.082-1.969-0.242-2.918l0.014 0.102c-1.662-25.876-22.754-46.314-48.751-46.933l-0.059-0.001z" />
<glyph unicode="&#xe91c;" glyph-name="dollar" d="M541.322 698.115l-7.65-32.295c-39.52 0-67.568-17.848-67.568-57.368s31.446-50.142 62.042-50.142c21.671 0 33.998-2.551 33.998-21.248s-13.598-21.671-39.096-21.671c-19.261 0.537-37.661 2.987-55.392 7.166l1.849-0.369v-30.597c7.18-2.179 15.943-4.107 24.914-5.404l1.011-0.121-9.775-36.971h34.846l8.072 32.295c42.497 0 73.943 21.248 73.943 60.767s-32.295 49.72-63.318 50.569c-17.848 0-31.873 0-31.873 19.546s11.9 20.4 32.295 20.4c17.332-0.009 34.19-2.022 50.36-5.818l-1.489 0.294v29.748c-5.641 1.736-12.661 3.366-19.838 4.543l-0.984 0.133 8.499 34.846zM278.278 358.154v-108.789c-0.1-1.276-0.156-2.76-0.156-4.258 0-14.644 5.367-28.033 14.241-38.308l-0.065 0.075c12.401-10.32 28.498-16.584 46.054-16.584 2.788 0 5.54 0.16 8.245 0.465l-0.332-0.029c2.38-0.283 5.142-0.446 7.938-0.446 17.415 0 33.363 6.271 45.712 16.682l-0.105-0.086c8.834 9.986 14.23 23.189 14.23 37.659 0 1.702-0.074 3.387-0.219 5.055l0.014-0.218v108.789h-33.146v-112.612c0.036-0.558 0.057-1.204 0.057-1.861 0-7.578-2.755-14.511-7.315-19.853l0.035 0.044c-6.103-5.191-14.078-8.352-22.79-8.352-1.553 0-3.082 0.102-4.584 0.294l0.179-0.019c-1.363-0.189-2.939-0.295-4.542-0.295-8.673 0-16.606 3.168-22.702 8.412l0.047-0.039c-4.525 5.302-7.28 12.235-7.28 19.812 0 0.654 0.021 1.303 0.062 1.947l-0.006-0.086v112.612zM444.86 311.409c0-38.247 25.071-46.746 57.368-48.444 23.373 0 36.122-2.551 36.122-22.097s-9.775-23.373-39.096-23.373c-18.24 0.329-35.8 2.476-52.733 6.277l1.736-0.329v-26.347c15.38-4.458 33.066-7.085 51.341-7.223l0.077-0.001c42.497 0 72.667 17.422 72.667 53.543s-25.92 49.293-57.368 50.569c-22.946 0-35.695 0-35.695 21.248s11.473 20.821 35.695 20.821c15.237-0.332 29.857-2.172 43.958-5.377l-1.464 0.278v25.071c-12.661 3.477-27.254 5.625-42.301 5.946l-0.196 0.004c-42.070 0-70.115-14.447-70.115-50.569zM666.257 393.426l-7.223-30.597c-37.395 0-64.167-16.999-64.167-54.392s29.748-47.596 58.642-47.596c20.821 0 32.295-2.125 32.295-19.973s-13.173-20.821-37.395-20.821c-18.385 0.577-35.907 2.869-52.835 6.725l1.838-0.351v-29.748c8.072-2.125 16.572-3.823 24.649-5.099l-8.499-32.295h32.722l8.072 30.17c42.497 0 70.115 20.4 70.115 57.793s-31.022 47.169-60.345 48.018c-16.999 0-30.17 0-30.17 18.275s11.473 19.546 30.597 19.546c16.563-0.286 32.52-2.129 47.96-5.39l-1.641 0.291v28.045c-5.435 1.608-12.187 3.091-19.077 4.139l-0.896 0.111 8.499 33.146zM916.977 421.897c0.073 2.805 0.115 6.108 0.115 9.418 0 83.621-26.63 161.027-71.874 224.191l0.79-1.163c-60.953 86.029-151.69 147.485-256.916 169.504l-2.727 0.478c-22.914 4.448-49.267 6.99-76.21 6.99-109.587 0-209.345-42.069-284.012-110.939l0.289 0.262 26.773-28.898c66.64 62.63 156.609 101.108 255.564 101.108 25.046 0 49.515-2.464 73.176-7.163l-2.379 0.393c97.049-20.836 178.584-76.166 232.935-152.246l0.787-1.163c40.245-55.67 64.372-125.3 64.372-200.566 0-4.187-0.074-8.357-0.222-12.509l0.017 0.6h-62.469l82.015-141.084 82.442 142.36zM444.433 66.639c-96.954 21.084-178.417 76.345-232.935 152.257l-0.787 1.149c-40.24 55.806-64.36 125.563-64.36 200.955 0 4.050 0.068 8.087 0.208 12.104l-0.015-0.582h62.469l-82.015 140.657-82.442-142.36h62.469c-0.073-2.805-0.115-6.108-0.115-9.418 0-83.621 26.63-161.027 71.874-224.191l-0.79 1.163c60.658-86.341 151.528-147.918 256.968-169.523l2.678-0.459c22.828-3.99 49.151-6.306 76-6.374h0.066c109.518 0.12 208.792 43.874 281.396 114.812l-0.078-0.075-28.045 27.623c-66.226-64.181-156.635-103.745-256.285-103.745-23.42 0-46.33 2.186-68.541 6.364l2.286-0.357z" />
<glyph unicode="&#xe91d;" glyph-name="dollar-account" d="M371.2 378.168c0.034-0.605 0.055-1.31 0.055-2.021 0-8.708-2.964-16.724-7.939-23.092l0.062 0.083c-7.248-6.019-16.646-9.672-26.899-9.672-1.73 0-3.437 0.104-5.113 0.306l0.202-0.020c-1.484-0.191-3.2-0.3-4.939-0.3-10.078 0-19.3 3.664-26.405 9.735l0.055-0.047c-5.226 6.138-8.407 14.159-8.407 22.924 0 0.741 0.023 1.477 0.068 2.208l-0.005-0.099v129.849h-38.069v-125.155c-0.295-2.363-0.462-5.095-0.462-7.868 0-16.994 6.301-32.514 16.693-44.356l-0.066 0.077c14.053-11.692 32.291-18.787 52.186-18.787 3.294 0 6.544 0.194 9.735 0.573l-0.386-0.037c2.799-0.333 6.039-0.522 9.325-0.522 20.069 0 38.484 7.086 52.877 18.891l-0.146-0.117c10.328 11.764 16.627 27.287 16.627 44.279 0 2.773-0.167 5.508-0.495 8.193l0.033-0.322v125.155h-38.59zM526.080 433.967c-26.074 0-41.196 0-41.196 23.989s13.559 23.989 41.196 23.989c0.077 0 0.168 0 0.26 0 18.366 0 36.289-1.899 53.581-5.511l-1.695 0.297v28.681c-15.373 4.306-33.027 6.782-51.259 6.782-0.313 0-0.626-0.001-0.937-0.002h0.049c-47.455 0-79.265-16.687-79.265-57.885s28.681-52.149 65.706-55.799c27.116 0 41.196-3.65 41.196-26.074s-10.43-26.595-44.847-26.595c-20.79 0.17-40.917 2.631-60.256 7.142l1.85-0.363v-30.246c17.784-5.154 38.23-8.19 59.363-8.344l0.086-0.001c52.149 0 83.436 19.816 83.436 61.535s-29.204 56.841-67.271 58.406zM703.384 431.882c-19.295 0-33.896 0-33.896 20.86s12.515 21.38 34.419 21.38c18.51-0.061 36.499-2.148 53.801-6.049l-1.652 0.314v31.81l-22.424 4.171 9.386 37.546h-37.025l-8.344-34.94c-41.719 0-71.444-18.774-71.444-60.491s33.375-52.149 65.706-52.149c22.945 0 35.981 0 35.981-22.424s-14.601-22.945-41.719-22.945c-20.386 0.459-39.926 3.094-58.699 7.685l1.858-0.385v-33.896c7.268-2.197 16.583-4.37 26.077-6.032l1.562-0.227-9.909-35.981h37.025l8.344 33.896c47.455 0 78.744 22.945 78.744 64.664s-35.46 52.149-67.793 53.191zM512 896.001c-259.206 0-469.334-210.128-469.334-469.334s210.128-469.334 469.334-469.334c259.206 0 469.334 210.128 469.334 469.334v0c0 259.206-210.128 469.334-469.334 469.334v0zM512 9.482c-230.405 0-417.185 186.78-417.185 417.185s186.78 417.185 417.185 417.185v0 0c230.405 0 417.185-186.78 417.185-417.185s-186.78-417.185-417.185-417.185v0z" />
<glyph unicode="&#xe91e;" glyph-name="settings-gear" d="M938.093 294.652l-20.492 11.823-7.882 3.941c-39.34 24.194-65.176 67.008-65.176 115.856s25.837 91.662 64.589 115.519l0.586 0.337h4.729l23.643 16.551c8.075 4.718 13.413 13.343 13.413 23.216 0 3.264-0.583 6.391-1.652 9.284l0.059-0.187c-19.211 49.134-43.909 91.573-74.069 129.472l0.773-1.005c-4.79 6.435-12.375 10.557-20.921 10.557-4.774 0-9.247-1.287-13.092-3.531l0.123 0.067-18.127-10.245c-20.584-13.827-45.927-22.071-73.195-22.071-0.313 0-0.626 0.001-0.937 0.004h0.048c-74.186 0.891-133.983 61.238-133.983 135.55 0 0.003 0 0.007 0 0.010v0 33.101c0.026 0.422 0.040 0.913 0.040 1.41 0 11.552-8.018 21.231-18.79 23.777l-0.165 0.033c-24.731 5.019-53.159 7.89-82.257 7.89-1.006 0-2.012-0.004-3.016-0.011l0.154 0.001c-27.968-0.172-55.212-2.746-81.691-7.524l2.877 0.43c-11.803-2.626-20.498-13.006-20.498-25.419 0-0.208 0.003-0.414 0.008-0.622l-0.001 0.031v-33.101c0-0.017 0-0.037 0-0.056 0-74.867-60.691-135.558-135.558-135.558-1.386 0-2.766 0.021-4.143 0.062l0.202-0.005c-0.396-0.005-0.865-0.007-1.332-0.007-23.256 0-45.077 6.142-63.93 16.891l0.636-0.334-29.161 16.551c-2.922 1.282-6.327 2.028-9.909 2.028-8.144 0-15.387-3.861-19.997-9.849l-0.044-0.059c-31.558-37.28-58.057-80.219-77.606-126.797l-1.208-3.245c-0.659-2.212-1.039-4.757-1.039-7.388 0-9.968 5.443-18.665 13.518-23.28l0.131-0.069 19.703-11.033c45.232-23.041 75.674-69.261 75.674-122.592 0-0.68-0.005-1.358-0.014-2.035l0.001 0.102c-1.485-47.373-27.057-88.46-64.823-111.577l-0.593-0.338-28.372-15.763c-8.925-4.249-14.984-13.195-14.984-23.556 0-2.271 0.291-4.475 0.838-6.573l-0.040 0.181c19.78-50.882 46.401-94.727 79.316-133.003l-0.502 0.598c4.644-6.259 12.009-10.271 20.313-10.271 5.041 0 9.735 1.479 13.675 4.026l-0.099-0.059 28.372 15.763c18.686 10.283 40.926 16.394 64.58 16.551h0.048c74.867 0 135.558-60.691 135.558-135.558v0 0-33.101c-0.005-0.176-0.007-0.384-0.007-0.59 0-12.412 8.695-22.793 20.325-25.385l0.173-0.033c23.601-4.346 50.846-6.92 78.661-7.093l0.153-0.001c0.85-0.007 1.856-0.010 2.862-0.010 29.098 0 57.525 2.871 85.015 8.349l-2.758-0.458c10.94 2.58 18.955 12.259 18.955 23.811 0 0.495-0.014 0.988-0.044 1.477l0.003-0.067v33.101c-0.001 0.225-0.002 0.491-0.002 0.757 0 74.867 60.691 135.558 135.558 135.558 27.558 0 53.197-8.223 74.593-22.351l-0.507 0.315 19.703-11.033c3.796-2.292 8.382-3.648 13.283-3.648 7.923 0 15.017 3.542 19.789 9.129l0.031 0.035c30.87 38.028 56.211 82.147 73.843 129.998l1.031 3.197c0.525 1.891 0.826 4.061 0.826 6.303 0 10.393-6.488 19.269-15.634 22.801l-0.166 0.056zM512.501 238.693c-103.674 0.472-187.535 84.624-187.535 188.362 0 104.030 84.334 188.364 188.364 188.364s188.364-84.334 188.364-188.364c0-1.385-0.014-2.766-0.045-4.145l0.004 0.206c-1.77-102.233-85.061-184.43-187.549-184.43-0.563 0-1.127 0.003-1.688 0.008l0.086-0.001z" />
<glyph unicode="&#xe91f;" glyph-name="down2" d="M887.167 372.851c-7.357 7.151-17.412 11.561-28.498 11.561s-21.14-4.41-28.508-11.572l0.011 0.010-277.603-280.957v764.417c0 22.219-18.012 40.232-40.232 40.232s-40.232-18.012-40.232-40.232v-764.417l-278.944 280.957c-7.357 7.151-17.412 11.561-28.498 11.561s-21.14-4.41-28.508-11.572l0.011 0.010c-7.151-7.357-11.561-17.412-11.561-28.498s4.41-21.14 11.572-28.508l-0.010 0.011 346.669-346.669c2.108-1.881 4.545-3.456 7.199-4.625l0.176-0.069h5.363c6.624-4.813 14.92-7.7 23.888-7.7 3.18 0 6.273 0.363 9.243 1.048l-0.275-0.054h5.363l8.047 4.694 345.999 346.669c7.151 7.357 11.561 17.412 11.561 28.498s-4.41 21.14-11.572 28.508l0.010-0.011z" />
<glyph unicode="&#xe920;" glyph-name="download" d="M932.264 319.059v0c-0.42 0.014-0.913 0.024-1.407 0.024-22.992 0-41.675-18.447-42.055-41.349l-0.001-0.035v-184.369c-0.758-26.791-22.28-48.314-49.001-49.071l-0.072-0.002h-655.455c-26.791 0.758-48.314 22.28-49.071 49.001l-0.002 0.072v184.369c0 22.843-18.517 41.36-41.36 41.36v0c-22.686-0.386-40.974-18.675-41.36-41.324l-0.001-0.036v-185.771c0.398-74.42 60.819-134.596 135.295-134.596 0.001 0 0.001 0 0.002 0h649.144c74.503 0.793 134.596 61.374 134.596 135.992 0 0.003 0 0.006 0 0.008v-0.001 184.369c-2.805 24.536-14.021 42.762-39.258 41.36zM489.921 223.721l8.413-4.907 5.608-3.506c4.769-1.996 10.31-3.157 16.123-3.157s11.355 1.159 16.406 3.261l-0.283-0.104c2.758 0.421 5.164 1.682 7.011 3.507l-0.001-0.001c3.218 1.302 5.995 2.953 8.475 4.957l-0.062-0.049 260.779 265.686c3.267 5.841 5.191 12.816 5.191 20.243 0 23.23-18.831 42.061-42.061 42.061-8.147 0-15.752-2.316-22.194-6.325l0.179 0.103-191.379-189.977v498.425c0 23.23-18.831 42.061-42.061 42.061s-42.061-18.831-42.061-42.061v0-498.425l-194.884 189.977c-7.624 7.624-18.159 12.341-29.794 12.341-23.27 0-42.135-18.865-42.135-42.135 0-11.635 4.717-22.168 12.341-29.794v0z" />
<glyph unicode="&#xe921;" glyph-name="edit" d="M977.653 775.092c-17.087 57.612-61.866 101.943-118.526 118.087l-1.219 0.298c-11.086 2.511-23.817 3.95-36.885 3.95-47.013 0-89.675-18.627-121.010-48.902l0.050 0.048-579.671-575.589c-10.886-4.082-10.886-12.247-10.886-20.411l-68.037-239.488c-0.945-3.519-1.489-7.558-1.489-11.725 0-12.956 5.248-24.685 13.735-33.179v0c8.124-7.602 19.076-12.273 31.117-12.273 0.541 0 1.081 0.010 1.619 0.029l-0.077-0.002h13.607l236.766 68.037c7.787 3.542 14.495 7.634 20.639 12.416l-0.228-0.17 575.589 579.671c31.537 28.506 51.269 69.564 51.269 115.227 0 15.678-2.326 30.812-6.652 45.076l0.286-1.098zM313.617 92.687l-194.584-59.873 49.666 184.38 496.667 500.749 139.474-139.474zM898.732 675.080l-46.264-49.666-136.074 136.074 44.224 45.584c13.56 14.41 32.758 23.384 54.052 23.384 7.408 0 14.563-1.087 21.314-3.108l-0.525 0.135c37.485-17.694 67.462-46.137 86.592-81.329l0.495-0.994c1.123-5.162 1.766-11.092 1.766-17.173 0-24.71-10.625-46.94-27.552-62.371l-0.067-0.060z" />
<glyph unicode="&#xe922;" glyph-name="efficient-invest" d="M476.432 537.157c-26.072 0-46.409 0-46.409 28.681s17.73 29.723 46.932 29.723c25.387-0.154 50.027-2.995 73.758-8.254l-2.318 0.43v45.367c-8.609 2.689-18.853 4.884-29.377 6.17l-0.869 0.086 12.515 52.147h-52.147l-11.472-47.974c-57.883 0-99.077-25.552-99.077-83.434s46.409-73.525 90.735-73.525c31.808 0 49.538-3.65 49.538-31.287s-19.816-31.808-57.36-31.808c-0.752-0.006-1.64-0.009-2.53-0.009-26.959 0-53.297 2.66-78.766 7.732l2.556-0.425v-45.888c10.731-3.257 23.621-5.998 36.838-7.693l1.229-0.128-13.557-52.147h52.147l11.472 47.453c65.183 2.606 107.942 31.808 107.942 89.17s-47.453 74.048-91.776 75.611zM964.518 414.093c-0.852 0.321-1.838 0.509-2.869 0.509s-2.015-0.187-2.926-0.527l0.057 0.019h-71.961c3.362 18.13 5.788 39.659 6.744 61.57l0.034 1.004c0.003 0.573 0.005 1.25 0.005 1.928 0 230.395-186.772 417.167-417.167 417.167s-417.167-186.772-417.167-417.167c0-179.705 113.628-332.871 272.956-391.568l2.892-0.933-67.269-67.79c-5.344-6.373-8.589-14.663-8.589-23.713 0-20.447 16.576-37.023 37.023-37.023 9.048 0 17.338 3.245 23.769 8.636l-0.057-0.047 205.454 208.584 92.82-92.82c6.63-6.763 15.863-10.956 26.072-10.956s19.443 4.192 26.068 10.95l0.006 0.007 204.412 204.412-11.994-123.064c-0.254-0.859-0.403-1.846-0.403-2.869s0.146-2.009 0.421-2.941l-0.018 0.074c1.451-1.533 3.47-2.516 5.72-2.606l0.016-0.001 65.183-4.694c0.156-0.012 0.339-0.020 0.521-0.020 3.744 0 6.78 3.035 6.78 6.78 0 0.008 0 0.013 0 0.021v-0.001l23.466 253.43c0.138 0.548 0.216 1.177 0.216 1.825s-0.078 1.277-0.228 1.88l0.011-0.055zM841.452 417.223h-138.188c-0.765 0.36-1.661 0.569-2.606 0.569s-1.842-0.209-2.646-0.584l0.038 0.016c-1.507-1.267-2.494-3.115-2.606-5.197l-0.001-0.018v-65.704c0.281-4.090 3.668-7.3 7.804-7.3 0.007 0 0.011 0 0.018 0h119.413l-178.34-180.426-92.82 92.82c-6.77 6.54-15.913 10.66-26.018 10.949l-0.055 0.001c-10.348-0.15-19.7-4.298-26.606-10.961l0.011 0.011-126.714-127.758c-154.921 46.179-265.942 187.356-265.942 354.461 0 203.9 165.294 369.193 369.193 369.193s369.193-165.294 369.193-369.193c0-0.504-0.001-1.007-0.003-1.51v0.077c0.072-2.781 0.112-6.055 0.112-9.337 0-17.668-1.177-35.060-3.46-52.103l0.218 1.993z" />
<glyph unicode="&#xe923;" glyph-name="efficient-invest-fill" d="M964.518 414.093c-0.852 0.321-1.838 0.509-2.869 0.509s-2.015-0.187-2.926-0.527l0.057 0.019h-71.961c3.362 18.13 5.788 39.659 6.744 61.57l0.034 1.004c0.003 0.573 0.005 1.25 0.005 1.928 0 230.395-186.772 417.167-417.167 417.167s-417.167-186.772-417.167-417.167c0-179.705 113.628-332.871 272.956-391.568l2.892-0.933-67.269-67.79c-5.344-6.373-8.589-14.663-8.589-23.713 0-20.447 16.576-37.023 37.023-37.023 9.048 0 17.338 3.245 23.769 8.636l-0.057-0.047 205.454 208.584 92.82-92.82c6.63-6.763 15.863-10.956 26.072-10.956s19.443 4.192 26.068 10.95l0.006 0.007 204.412 204.412-11.994-123.064c-0.254-0.859-0.403-1.846-0.403-2.869s0.146-2.009 0.421-2.941l-0.018 0.074c1.451-1.533 3.47-2.516 5.72-2.606l0.016-0.001 65.183-4.694c0.156-0.012 0.339-0.020 0.521-0.020 3.744 0 6.78 3.035 6.78 6.78 0 0.008 0 0.013 0 0.021v-0.001l23.466 253.43c0.138 0.548 0.216 1.177 0.216 1.825s-0.078 1.277-0.228 1.88l0.011-0.055zM460.267 372.376l-11.994-46.409h-52.147l13.557 52.147c-14.131 1.459-26.893 3.847-39.27 7.174l1.726-0.395v45.888c23.369-5.579 50.433-9.15 78.203-9.896l0.539-0.011c37.546 0 57.36 10.951 57.36 31.808s-17.73 30.766-49.538 31.287c-44.324 0-90.735 12.515-90.735 73.525s41.196 81.87 99.077 83.434l11.472 47.974h50.059l-12.515-52.147c11.273-0.33 22.037-1.642 32.466-3.859l-1.176 0.209v-43.282c-19.074 3.7-41.008 5.816-63.437 5.816-2.63 0-5.255-0.030-7.872-0.087l0.39 0.007c-29.202 0-46.932-6.257-46.932-29.723s20.337-28.158 46.409-28.681c45.367 0 92.82-11.472 92.82-74.569s-43.282-86.562-108.463-90.212z" />
<glyph unicode="&#xe924;" glyph-name="envelope-email" d="M710.23 522.060c0 0.001 0 0.002 0 0.002 0 10.574-8.572 19.145-19.145 19.145-0.103 0-0.208-0.001-0.31-0.003h-353.727c-0.716 0.094-1.547 0.147-2.388 0.147-10.736 0-19.44-8.704-19.44-19.44s8.704-19.44 19.44-19.44c0.842 0 1.671 0.054 2.485 0.158l-0.097-0.011h353.448c0.176-0.006 0.384-0.010 0.591-0.010 10.574 0 19.145 8.572 19.145 19.145 0 0.106-0.001 0.213-0.003 0.319v-0.016zM337.048 608.065h353.448c10.736 0 19.44 8.704 19.44 19.44s-8.704 19.44-19.44 19.44v0h-353.448c-10.736 0-19.44-8.704-19.44-19.44s8.704-19.44 19.44-19.44v0zM969.131 567.715l-134.605 98.671v82.471c0 16.267-13.187 29.455-29.455 29.455v0h-123.706l-152.277 112.219c-4.805 3.544-10.842 5.672-17.377 5.672s-12.574-2.128-17.459-5.73l0.080 0.056-151.984-112.219h-123.118c-16.267 0-29.455-13.187-29.455-29.455v0-82.471l-135.193-98.671c-7.371-5.419-12.102-14.056-12.102-23.801 0-0.434 0.010-0.868 0.029-1.297l-0.002 0.061v-497.183c0-48.802 39.562-88.362 88.362-88.362v0h762.27c48.802 0 88.362 39.562 88.362 88.362v0 497.183c0.011 0.307 0.018 0.668 0.018 1.029 0 9.868-4.853 18.602-12.3 23.946l-0.088 0.060zM834.527 593.633l64.504-47.127-64.504-38.585zM510.533 829.266l71.573-50.956h-140.79zM248.687 719.403h526.933v-247.119l-265.087-158.462-261.846 159.052zM189.778 593.633v-86.005l-65.093 38.88zM922.3 45.494c0-16.267-13.187-29.455-29.455-29.455v0h-761.977c-16.267 0-29.455 13.187-29.455 29.455v0 446.818l395.567-237.4c4.224-2.48 9.304-3.947 14.727-3.947s10.503 1.464 14.867 4.021l-0.14-0.076 396.158 237.4z" />
<glyph unicode="&#xe925;" glyph-name="envelope-send" d="M896.031 705.291h-602.129c-38.535 0-69.774-31.235-69.774-69.774v0-186.056h-50.003c-8.483-1.025-14.995-8.182-14.995-16.862s6.511-15.836 14.911-16.855l0.084-0.007h50.238v-50.47h-100.704c-9.249 0-16.747-7.497-16.747-16.747s7.497-16.747 16.747-16.747h100.704v-50.47h-151.17c-8.483-1.025-14.995-8.182-14.995-16.862s6.511-15.836 14.911-16.855l0.084-0.007h151.17v-29.772c0-38.535 31.235-69.774 69.774-69.774v0h601.897c38.535 0 69.774 31.235 69.774 69.774v0 417.699c0 38.535-31.235 69.774-69.774 69.774v0zM293.902 658.774h602.129c3.202-0.041 6.236-0.722 8.99-1.918l-0.15 0.059-310.019-268.389-309.789 268.624c2.423 1.038 5.244 1.639 8.209 1.639 0.221 0 0.44-0.006 0.66-0.007l-0.033 0.001zM919.055 218.983c0-12.845-10.415-23.254-23.254-23.254v0h-601.897c-12.845 0-23.254 10.415-23.254 23.254v0 29.772h30.234c8.483 1.025 14.995 8.182 14.995 16.862s-6.511 15.836-14.911 16.855l-0.084 0.007h-30.234v50.701h80.704c9.249 0 16.747 7.497 16.747 16.747s-7.497 16.747-16.747 16.747h-80.704v50.238h131.174c8.483 1.025 14.995 8.182 14.995 16.862s-6.511 15.836-14.911 16.855l-0.084 0.007h-131.174v157.687l309.087-267.923c4.041-3.468 9.332-5.583 15.118-5.583 0.001 0 0.002 0 0.003 0v0c0.072-0.001 0.15-0.002 0.231-0.002 5.786 0 11.081 2.11 15.145 5.61l-0.033-0.026 308.856 267.923z" />
<glyph unicode="&#xe926;" glyph-name="expand-less" d="M942.106 283.062l-381.138 381.665c-11.637 11.143-27.456 17.998-44.872 17.998s-33.232-6.86-44.896-18.022l0.024 0.021-385.361-385.889c-11.51-11.469-18.634-27.337-18.634-44.872s7.124-33.398 18.632-44.872l0.004-0.004c11.577-11.313 27.392-18.337 44.847-18.478h0.029c17.482 0.138 33.291 7.16 44.884 18.49l-0.013-0.012 340.491 341.019 336.798-336.27c10.898-9.119 25.068-14.661 40.527-14.661 34.984 0 63.344 28.361 63.344 63.344 0 15.463-5.539 29.629-14.742 40.623l0.078-0.102z" />
<glyph unicode="&#xe927;" glyph-name="expand-more" d="M940.168 664.194c-11.387 11.483-27.171 18.59-44.612 18.59s-33.225-7.108-44.606-18.586l-341.063-341.063-336.306 336.834c-11.586 11.263-27.419 18.206-44.876 18.206s-33.29-6.945-44.894-18.218l0.018 0.017c-11.51-11.471-18.635-27.342-18.635-44.876s7.125-33.405 18.632-44.872l381.186-381.186c11.459-11.42 27.265-18.481 44.721-18.481 0.054 0 0.11 0 0.162 0h-0.006c0.241-0.006 0.522-0.006 0.81-0.006 17.251 0 32.853 7.073 44.056 18.473l385.41 385.41c11.51 11.471 18.635 27.342 18.635 44.876s-7.125 33.405-18.632 44.872l-0.004 0.004z" />
<glyph unicode="&#xe928;" glyph-name="eye" d="M509.994 769.98c-287.854 0-450.001-316.904-456.338-329.051-2.358-3.577-3.759-7.96-3.759-12.674s1.405-9.1 3.816-12.765l-0.056 0.089c6.337-15.315 167.431-332.219 456.338-332.219 233.448 0 385.564 201.231 455.284 321.126l5.283 8.978c2.229 3.348 3.55 7.459 3.55 11.884s-1.328 8.537-3.601 11.965l0.051-0.080-5.283 8.978c-70.774 122.538-222.36 323.768-455.284 323.768zM513.162 142.511c-218.133 0-358.101 216.020-398.237 282.044v6.864c49.122 84.509 185.387 282.044 395.069 282.044 218.66 0 360.741-216.020 398.768-282.044v-6.864c-38.029-66.020-180.104-282.044-395.598-282.044zM509.994 586.7c-87.509 0-158.452-70.943-158.452-158.452s70.943-158.452 158.452-158.452c87.509 0 158.452 70.943 158.452 158.452v0c0 87.509-70.943 158.452-158.452 158.452v0zM509.994 325.259c-56.59 0-102.466 45.873-102.466 102.466s45.873 102.466 102.466 102.466v0c56.59 0 102.466-45.873 102.466-102.466s-45.873-102.466-102.466-102.466v0z" />
<glyph unicode="&#xe929;" glyph-name="eye-close" d="M780.019 191.281v0l-38.851 40.923-610.729 610.729c-4.993 5.132-11.968 8.315-19.684 8.315s-14.691-3.184-19.677-8.309l-0.007-0.007c-5.132-4.993-8.315-11.968-8.315-19.684s3.184-14.691 8.309-19.677l0.007-0.007 148.667-148.149c-72.175-60.312-131.671-133.031-175.775-215.238l-1.901-3.876c-2.333-3.413-3.725-7.632-3.725-12.172s1.392-8.76 3.771-12.25l-0.050 0.074c6.735-13.985 165.242-323.753 448.073-323.753 84.645 0.746 162.969 27.176 227.733 71.857l-1.365-0.891 150.221-149.185c5.105-4.886 12.044-7.892 19.684-7.892s14.578 3.008 19.693 7.904l-0.010-0.010c5.005 5.052 8.098 12.008 8.098 19.684s-3.094 14.633-8.1 19.687l0.003-0.003zM420.524 473.075l138.308-137.272c-14.096-8.385-31.059-13.376-49.185-13.467h-0.028c0 0-0.001 0-0.002 0-55.499 0-100.494 44.991-100.494 100.494 0 0.183 0.001 0.365 0.002 0.547v-0.030c-0.051 1.19-0.083 2.587-0.083 3.99 0 16.748 4.249 32.505 11.732 46.245l-0.252-0.508zM510.657 143.626c-211.865 0-349.134 211.865-388.502 276.613v6.735c42.362 73.553 95.019 135.947 156.901 187.668l1.088 0.886 103.601-103.601c-17.693-24.472-28.487-54.958-29.007-87.937l-0.002-0.127c0-85.827 69.575-155.402 155.402-155.402v0c33.313 0.111 64.069 10.976 88.998 29.304l-0.42-0.294 97.904-97.904c-51.848-34.433-115.37-55.211-183.703-55.942l-0.189-0.002zM961.322 435.779c-1.662 2.326-3.375 5.033-4.946 7.832l-0.233 0.454c-69.411 117.588-218.078 314.945-446.518 314.945-64.356-0.305-124.939-16.169-178.274-44.015l2.151 1.024 41.441-41.441c39.608 17.994 85.854 28.636 134.548 29.007l0.134 0.001c214.455 0 353.796-211.865 391.092-276.613v-6.735c-34.151-59.175-73.471-110.207-118.627-155.406l0.006 0.006 39.369-39.369c51.396 50.85 96.041 108.362 132.579 171.174l2.1 3.911 5.181 8.807c2.711 3.647 4.339 8.237 4.339 13.208s-1.628 9.563-4.382 13.268l0.043-0.060zM509.622 579.267c-13.319-0.128-26.143-2.009-38.328-5.426l1.031 0.249 188.035-186.481c2.961 11.028 4.664 23.689 4.664 36.747 0 0.192 0 0.388-0.001 0.581v-0.030c-0.587 85.379-69.936 154.366-155.398 154.366-0.001 0-0.003 0-0.004 0v0z" />
<glyph unicode="&#xe92a;" glyph-name="favoritos" d="M982.235 532.78c-3.701 12.126-13.933 21.138-26.493 23.014l-0.179 0.022-285.534 40.617-127.308 258.254c-5.097 11.855-16.677 20.005-30.16 20.005-0.053 0-0.107 0-0.159 0h0.009c-0.065 0-0.141 0.001-0.22 0.001-12.698 0-23.826-6.731-30.005-16.821l-0.088-0.155-127.308-258.254-284.928-40.012c-13.633-1.29-24.746-10.767-28.435-23.411l-0.057-0.231c-0.789-3.401-1.244-7.306-1.244-11.318 0-7.994 1.799-15.571 5.015-22.34l-0.136 0.316 205.511-201.267-46.679-281.896c-0.536-2.195-0.841-4.713-0.841-7.301 0-11.048 5.576-20.793 14.066-26.577l0.112-0.073c5.959-4.031 13.307-6.437 21.218-6.437 5.713 0 11.133 1.253 15.999 3.502l-0.237-0.097 254.616 133.978 255.222-133.978c4.426-2.321 9.671-3.684 15.234-3.684 0.613 0 1.222 0.016 1.826 0.050l-0.084-0.004c0.62-0.031 1.346-0.048 2.075-0.048 6.479 0 12.644 1.355 18.222 3.799l-0.292-0.115c8.568 5.725 14.135 15.361 14.135 26.294 0 2.499-0.29 4.93-0.841 7.261l0.043-0.214-45.467 281.896 203.087 201.267c7.292 5.595 11.945 14.311 11.945 24.115 0 3.521-0.599 6.902-1.705 10.048l0.065-0.213zM708.221 329.087c-5.197-4.88-8.432-11.792-8.432-19.46 0-1.91 0.2-3.772 0.581-5.569l-0.032 0.175 41.829-242.492-215.819 117.003c-1.999 0.578-4.295 0.912-6.668 0.912s-4.671-0.332-6.843-0.955l0.176 0.043h-19.399l-217.030-115.182 42.435 242.492c-0.044 9.886-3.462 18.967-9.161 26.157l0.068-0.089-175.201 173.987 246.128 35.162c0.675-0.067 1.459-0.105 2.251-0.105 9.692 0 18.052 5.683 21.936 13.9l0.063 0.148 109.121 221.88 105.483-224.305c6.061-6.061 14.549-14.549 21.825-14.549l246.734-35.162z" />
<glyph unicode="&#xe92b;" glyph-name="filter-funnel" d="M966.501 812.179c-4.665 11.663-15.868 19.752-28.962 19.752-0.754 0-1.504-0.029-2.246-0.081l0.101 0.007h-844.951c-0.9 0.096-1.943 0.151-2.996 0.151-12.892 0-23.874-8.176-28.042-19.622l-0.067-0.207c-2.783-4.791-4.422-10.54-4.422-16.673 0-8.453 3.118-16.179 8.267-22.088l-0.034 0.041 330.744-380.893v-257.104c0.949-13.369 8.554-24.775 19.487-31.006l0.191-0.101 167.593-78.718c3.534-2.479 7.923-3.961 12.66-3.961 0.907 0 1.803 0.054 2.684 0.162l-0.105-0.010c1.549-0.318 3.324-0.503 5.144-0.503 5.406 0 10.435 1.606 14.637 4.373l-0.102-0.063c8.769 7.775 14.636 18.658 15.856 30.906l0.015 0.2v338.996l330.744 377.719c4.016 6.719 6.389 14.823 6.389 23.478 0 5.463-0.943 10.704-2.68 15.571l0.102-0.324zM569.736 431.286c-4.109-6.918-6.66-15.191-6.982-24.032l-0.003-0.090v-292.020l-97.764 46.979v245.040c-1.276 8.81-4.181 16.737-8.411 23.777l0.162-0.287-288.845 330.744h690.053z" />
<glyph unicode="&#xe92c;" glyph-name="filter-mixer" d="M298.692 405.332h-64.003v367.666c-1.502 21.158-19.033 37.752-40.441 37.752-0.783 0-1.562-0.024-2.335-0.064l0.107 0.006h-7.111c-20.175-2.53-35.631-19.579-35.631-40.237 0-0.855 0.027-1.703 0.081-2.548l-0.008 0.117v-362.686h-71.115c-20.175-2.53-35.631-19.579-35.631-40.237 0-0.855 0.027-1.703 0.081-2.548l-0.008 0.117v-4.978c1.502-21.158 19.033-37.752 40.441-37.752 0.783 0 1.562 0.024 2.335 0.064l-0.107-0.006h64.003v-239.659c1.502-21.158 19.033-37.752 40.441-37.752 0.783 0 1.562 0.024 2.335 0.064l-0.107-0.006h4.978c21.158 1.502 37.752 19.033 37.752 40.441 0 0.783-0.024 1.562-0.064 2.335l0.006-0.107v234.679h64.003c23.565 0 42.669 19.104 42.669 42.669s-19.104 42.669-42.669 42.669v0zM682.712 580.987c-1.502 21.158-19.033 37.752-40.441 37.752-0.783 0-1.562-0.024-2.335-0.064l0.107 0.006h-64.003v154.32c-1.502 21.158-19.033 37.752-40.441 37.752-0.783 0-1.562-0.024-2.335-0.064l0.107 0.006h-4.978c-21.158-1.502-37.752-19.033-37.752-40.441 0-0.783 0.024-1.562 0.064-2.335l-0.006 0.107v-149.341h-71.115c-21.158-1.502-37.752-19.033-37.752-40.441 0-0.783 0.024-1.562 0.064-2.335l-0.006 0.107v-4.978c1.502-21.158 19.033-37.752 40.441-37.752 0.783 0 1.562 0.024 2.335 0.064l-0.107-0.006h64.003v-453.004c1.502-21.158 19.033-37.752 40.441-37.752 0.783 0 1.562 0.024 2.335 0.064l-0.107-0.006h9.245c21.158 1.502 37.752 19.033 37.752 40.441 0 0.783-0.024 1.562-0.064 2.335l0.006-0.107v448.023h71.115c19.165 3.462 33.515 20.015 33.515 39.924 0 0.964-0.033 1.924-0.099 2.872l0.009-0.128zM938.726 319.994h-64.003v453.004c-1.502 21.158-19.033 37.752-40.441 37.752-0.783 0-1.562-0.024-2.335-0.064l0.107 0.006h-7.111c-21.158-1.502-37.752-19.033-37.752-40.441 0-0.783 0.024-1.562 0.064-2.335l-0.006 0.107v-448.023h-61.87c-23.565 0-42.669-19.104-42.669-42.669s19.104-42.669 42.669-42.669h64.003v-154.32c1.502-21.158 19.033-37.752 40.441-37.752 0.783 0 1.562 0.024 2.335 0.064l-0.107-0.006h4.978c21.158 1.502 37.752 19.033 37.752 40.441 0 0.783-0.024 1.562-0.064 2.335l0.006-0.107v149.341h64.003c23.565 0 42.669 19.104 42.669 42.669s-19.104 42.669-42.669 42.669v0z" />
<glyph unicode="&#xe92d;" glyph-name="fixed-term" d="M740.974 598.042h-22.027v58.734c0.877 7.169 1.375 15.469 1.375 23.883 0 114.8-93.063 207.866-207.866 207.866s-207.866-93.063-207.866-207.866c0-8.415 0.5-16.715 1.472-24.868l-0.097 0.985v-58.734h-23.402c-48.047-0.259-86.925-39.138-87.184-87.159v-458.889c0-48.151 39.034-87.184 87.184-87.184v0h458.864c48.151 0 87.184 39.034 87.184 87.184v0 458.864c-0.261 48.205-39.399 87.184-87.642 87.184 0 0-0.001 0-0.001 0v0zM363.327 656.777c-0.145 2.463-0.228 5.343-0.228 8.243 0 81.856 66.357 148.213 148.213 148.213s148.213-66.357 148.213-148.213c0-2.9-0.083-5.78-0.249-8.639l0.018 0.397v-58.734h-295.967zM768.505 52.453c0-15.206-12.328-27.531-27.531-27.531v0h-458.405c-15.206 0-27.531 12.328-27.531 27.531v0 399.211h513.469zM504.198 222.233c26.156 0 40.84-2.754 40.84-25.696s-16.519-26.156-45.886-26.156c-23.305 0.704-45.532 3.674-66.965 8.709l2.264-0.448v-37.627c8.828-2.87 19.374-5.278 30.212-6.77l0.991-0.112-11.012-41.297h41.756l9.636 38.546c53.687 0 89.479 26.156 89.479 73.419s-40.84 63.323-78.923 63.323c-21.567 0-38.546 0-38.546 23.861s14.684 24.778 39.002 24.778c21.029-0.408 41.247-2.894 60.755-7.263l-2.021 0.379v35.792l-25.237 5.507 11.931 42.215h-42.215l-9.177-39.462c-45.886 0-81.677-21.108-81.677-68.83s38.086-60.11 74.794-62.864z" />
<glyph unicode="&#xe92e;" glyph-name="help" d="M512 896.001c-259.206 0-469.334-210.128-469.334-469.334s210.128-469.334 469.334-469.334c259.206 0 469.334 210.128 469.334 469.334v0c0 259.206-210.128 469.334-469.334 469.334v0zM512 9.482c-230.405 0-417.185 186.78-417.185 417.185s186.78 417.185 417.185 417.185v0 0c230.405 0 417.185-186.78 417.185-417.185s-186.78-417.185-417.185-417.185v0zM512 682.193c-83.072-0.591-150.186-68.071-150.186-151.226 0-0.001 0-0.003 0-0.004v0c-0.003-0.155-0.005-0.339-0.005-0.521 0-16.417 13.308-29.725 29.725-29.725 0.002 0 0.004 0 0.005 0v0c0.318-0.011 0.689-0.019 1.063-0.019 16.129 0 29.204 13.075 29.204 29.204 0 0.374-0.008 0.745-0.021 1.115l0.002-0.054c0 49.825 40.391 90.216 90.216 90.216s90.216-40.391 90.216-90.216v0 0c-2.146-37.939-22.175-70.785-51.722-90.471l-0.427-0.267c-16.512-14.308-31.225-29.845-44.297-46.717l-0.549-0.737c-14.159-19.573-22.865-43.914-23.463-70.257l-0.003-0.143c-0.003-0.155-0.005-0.339-0.005-0.521 0-16.417 13.308-29.725 29.725-29.725 0.002 0 0.004 0 0.005 0v0c0.157-0.003 0.341-0.005 0.526-0.005 16.523 0 29.952 13.249 30.24 29.702v0.028c-0.020 0.553-0.032 1.201-0.032 1.855 0 13.643 4.941 26.13 13.134 35.772l-0.065-0.078c11.713 14.492 24.003 27.445 37.241 39.363l0.305 0.271c39.866 31.213 66.134 78.214 69.333 131.435l0.024 0.5c0 0.001 0 0.003 0 0.004 0 83.155-67.114 150.635-150.13 151.226h-0.056zM512 232.676c-16.993 0-30.767-13.775-30.767-30.767s13.775-30.767 30.767-30.767c16.993 0 30.767 13.775 30.767 30.767v0c0.003 0.157 0.005 0.341 0.005 0.526 0 16.705-13.541 30.246-30.246 30.246-0.186 0-0.369-0.002-0.554-0.005h0.028z" />
<glyph unicode="&#xe92f;" glyph-name="home" d="M924.274 581.461l-395.524 308.332c-4.865 4.392-11.234 7.203-18.248 7.579l-0.075 0.003c-0.223 0.007-0.485 0.011-0.748 0.011-7.318 0-13.962-2.894-18.848-7.601l0.009 0.009-391.102-308.332c-8.043-5.259-13.281-14.221-13.281-24.406 0-0.305 0.005-0.608 0.013-0.913l-0.001 0.044v-480.189c1.056-66.093 54.533-119.348 120.613-120.046l0.067-0.001h610.347c65.875 1.048 118.999 54.173 120.045 119.948l0.001 0.099v480.189c-1.221 10.131-6.085 18.943-13.226 25.235l-0.044 0.037zM608.361 23.555h-193.971v368.356h195.235zM871.202 75.998c-0.352-29.518-24.188-53.353-53.673-53.705h-141.563v408.793c-1.015 16.626-14.746 29.724-31.537 29.724-0.464 0-0.925-0.011-1.384-0.030l0.065 0.002h-266c-16.355-1.318-29.127-14.915-29.127-31.496 0-0.7 0.023-1.397 0.068-2.085l-0.005 0.094v-402.475h-140.897c-0.028 0-0.059 0-0.092 0-28.898 0-52.527 22.56-54.238 51.027l-0.008 0.15v467.553l357.616 279.901 358.247-278.005z" />
<glyph unicode="&#xe930;" glyph-name="house-loan" d="M804.421 357.491c52.93-2.965 101.199-6.351 101.199-69.445s-24.983-88.073-118.559-88.073c-0.68-0.004-1.489-0.007-2.295-0.007-49.086 0-96.548 6.958-141.448 19.949l3.587-0.89v-64.36c19.741-6.461 42.985-11.525 66.939-14.245l1.653-0.153-24.137-98.66h67.326l22.444 92.73h4.233c105.010 0 193.085 42.343 193.085 158.788 0 124.912-98.66 131.686-161.751 135.074-49.966 2.539-100.352 8.044-100.352 64.787s35.567 84.685 107.129 84.685c43.349-0.051 84.985-7.335 123.779-20.704l-2.68 0.803v61.821c-17.765 6.211-38.554 10.978-60.047 13.424l-1.348 0.124 25.405 98.66h-66.901l-24.137-94.848c-84.685 0-174.875-34.719-174.875-145.66 0-122.796 102.892-131.266 161.751-133.805zM505.057 311.337h-439.1c-10.056 0-18.206-8.15-18.206-18.206v0c0-0.002 0-0.004 0-0.006 0-10.14 8.101-18.388 18.185-18.625l0.023-0.001h439.1c10.105 0.238 18.206 8.486 18.206 18.626 0 0.002 0 0.005 0 0.007v0c0 10.056-8.15 18.206-18.206 18.206v0zM505.057 183.036c10.056 0 18.206 8.15 18.206 18.206s-8.15 18.206-18.206 18.206h-439.1c-10.056 0-18.206-8.15-18.206-18.206s8.15-18.206 18.206-18.206v0zM71.461 587.411h33.453v-182.499c0-23.383 18.96-42.343 42.343-42.343v0h273.115c23.383 0 42.343 18.96 42.343 42.343v0 182.499h33.873c1.252-0.245 2.687-0.388 4.16-0.388 9.002 0 16.768 5.3 20.344 12.952l0.059 0.136c0.966 2.433 1.524 5.254 1.524 8.204 0 7.821-3.926 14.721-9.915 18.847l-0.079 0.049-206.635 177.418c-5.818 4.429-13.185 7.092-21.171 7.092s-15.353-2.664-21.256-7.157l0.085 0.063-207.482-177.418c-6.453-4.115-10.673-11.236-10.673-19.34 0-2.784 0.496-5.448 1.407-7.915l-0.050 0.157c3.634-7.788 11.398-13.093 20.403-13.093 1.471 0 2.908 0.14 4.3 0.41l-0.14-0.024zM322.978 399.834h-76.642v105.857h75.369zM284.447 775.414l177.841-152.437h-34.299v-218.066c0.009-0.132 0.011-0.28 0.011-0.437 0-4.211-3.413-7.623-7.623-7.623-0.153 0-0.305 0.006-0.459 0.012l0.022-0.001h-58.010v108.822c0 23.383-18.96 42.343-42.343 42.343v0h-71.984c-23.383 0-42.343-18.96-42.343-42.343v0-108.822h-56.317c-0.132-0.009-0.28-0.011-0.437-0.011-4.211 0-7.623 3.413-7.623 7.623 0 0.153 0.006 0.305 0.012 0.459l-0.001-0.022v218.491h-33.873z" />
<glyph unicode="&#xe931;" glyph-name="icbc-perfil" d="M900.602 277.843c24.707 52.143 39.132 113.289 39.132 177.802 0 0.182 0 0.363 0 0.545v-0.029c0 0.112 0 0.244 0 0.377 0 241.008-195.376 436.383-436.383 436.383s-436.383-195.376-436.383-436.383c0-133.049 59.544-252.191 153.437-332.233l0.611-0.508 6.439-5.449c18.995-15.747 40.238-30.194 62.795-42.54l2.093-1.049 13.374-6.935 21.795-10.402 17.832-6.935 18.823-6.935 19.318-6.439 19.812-4.953 19.318-3.963 23.281-3.467h15.851c13.868 0 27.243 0 41.112 0 40.226 0.111 79.101 5.71 115.974 16.086l-3.039-0.731c34.412-48.447 90.317-79.676 153.516-79.676 103.68 0 187.73 84.048 187.73 187.73 0 52.798-21.797 100.506-56.882 134.617l-0.044 0.043zM220.020 182.244c-70.714 71.538-114.394 169.928-114.394 278.52 0 218.85 177.413 396.262 396.262 396.262s396.262-177.413 396.262-396.262c0-1.619-0.011-3.236-0.030-4.85l0.003 0.246c0-0.12 0-0.261 0-0.403 0-54.939-11.293-107.241-31.685-154.71l0.974 2.552c-6.628 4.234-14.283 8.221-22.293 11.528l-0.988 0.361h-3.467c-7.712 3.164-16.984 6.063-26.544 8.197l-1.194 0.225h-9.41c-9.903 2.052-21.348 3.307-33.058 3.465l-0.128 0.002c-16.261-0.096-31.936-2.44-46.782-6.74l1.211 0.3c-34.411 45.799-81.578 80.326-136.216 98.494l-1.979 0.571c53.816 31.374 89.406 88.815 89.406 154.571 0 98.482-79.835 178.318-178.318 178.318s-178.318-79.835-178.318-178.318c0-65.755 35.592-123.198 88.56-154.115l0.846-0.456c-102.711-35.811-177.266-126.801-188.619-236.555l-0.1-1.203zM497.9 439.815v0c-0.146-0.001-0.32-0.001-0.494-0.001-76.871 0-139.188 62.317-139.188 139.188s62.317 139.188 139.188 139.188c76.871 0 139.188-62.317 139.188-139.188 0-0.174 0-0.348-0.001-0.521v0.027c0 0 0-0.001 0-0.001 0-76.597-62.095-138.691-138.691-138.691-0.174 0-0.348 0-0.522 0.001h0.027zM611.826 245.151c-5.378-8.053-10.507-17.32-14.863-27.009l-0.492-1.224v-4.953c-3.176-7.464-6.069-16.397-8.202-25.62l-0.22-1.127c0-2.972 0-5.944 0-8.916-2.052-10.049-3.307-21.67-3.465-33.552l-0.002-0.13c0.1-13.036 1.54-25.677 4.184-37.869l-0.221 1.214c1.899-7.98 3.94-14.596 6.344-21.035l-0.4 1.221c1.328-5.497 2.688-9.963 4.263-14.326l-0.3 0.952c-27.79-7.171-59.707-11.322-92.582-11.393h-0.044c-12.382 0-24.271 0-36.654 0h-13.868l-21.298 2.972-20.309 7.43-18.326 4.953-16.346 4.953-18.823 6.935-13.868 5.449c-24.347 10.315-45.187 21.757-64.7 35.008l1.298-0.831-4.458 3.467-18.326 13.374c0 4.953 0 9.907 0 14.86 0.69 131.058 107.094 237.036 238.25 237.036 74.619 0 141.225-34.303 184.911-88.001l0.344-0.437c-5.406-2.85-9.94-5.642-14.28-8.694l0.41 0.273-6.439-3.963c-9.098-6.067-17.037-12.59-24.272-19.814l0.002 0.002c-1.712-1.956-3.491-3.737-5.384-5.392l-0.065-0.055c-5.63-5.999-10.991-12.459-15.944-19.236l-0.403-0.578zM769.34-2.512c-0.009 0-0.017 0-0.027 0-58.71 0-109.304 34.74-132.347 84.788l-0.374 0.905v4.458c-2.459 6.301-4.843 14.081-6.698 22.063l-0.238 1.216v6.935c-1.497 7.703-2.394 16.598-2.477 25.688l-0.001 0.070c0.097 9.518 0.994 18.76 2.627 27.744l-0.15-0.994c0 2.972 0 5.449 0 8.421 1.839 6.904 3.701 12.512 5.842 17.978l-0.392-1.138 3.467 8.916c2.746 6.088 5.724 11.291 9.128 16.173l-0.212-0.322 3.963 6.439c4.797 7.258 10.020 13.582 15.834 19.303l4.473 4.473 14.86 11.888 8.916 5.944 13.374 6.935 10.896 4.953c14.646 5.824 31.599 9.415 49.329 9.902l0.204 0.005c9.976-0.251 19.53-1.322 28.816-3.149l-1.077 0.177h7.43c7.29-1.669 13.575-3.71 19.607-6.236l-0.784 0.292 7.924-3.467 15.851-8.421 8.421-5.944c37.017-26.746 60.828-69.788 60.828-118.39 0-80.427-65.199-145.626-145.626-145.626-0.489 0-0.975 0.003-1.462 0.008l0.075-0.001zM676.714 157.479h52.009v-26.747h-52.009v-78.757h85.691v26.747h-58.449v25.261h52.009v80.739h-52.009v24.767h58.449v27.243h-85.691v-79.253zM775.779 209.488h58.449v-24.767h-52.009v-80.739h52.009v-25.261h-58.449v-26.747h85.691v78.757h-51.514v26.747h51.514v79.253h-85.691v-27.243z" />
<glyph unicode="&#xe932;" glyph-name="in" d="M838.199 873.886h-179.709c-23.915 0-41.682-13.666-40.315-37.581v0c-0.014-0.413-0.023-0.9-0.023-1.389 0-22.546 17.903-40.912 40.269-41.658l0.069-0.002h179.709c26.417 0 47.83-21.414 47.83-47.83v0-637.518c-0.386-26.121-21.649-47.148-47.827-47.148-0.002 0-0.004 0-0.006 0h-179.709c-20.257-2.707-35.715-19.876-35.715-40.657s15.461-37.951 35.505-40.634l0.21-0.023h181.073c72.621 0.772 131.194 59.822 131.194 132.553 0 0.003 0 0.006 0 0.009v-0.001 630.003c0 0.001 0 0.001 0 0.002 0 72.834-59.044 131.876-131.876 131.876-0.241 0-0.48-0.001-0.721-0.002h0.036zM195.898 389.425h485.825c22.643 0 40.997 18.354 40.997 40.997s-18.354 40.997-40.997 40.997h-485.825l188.591 189.958c11.75 7.347 19.453 20.215 19.453 34.88 0 22.643-18.354 40.997-40.997 40.997-13.972 0-26.312-6.991-33.714-17.662l-0.090-0.136-261.703-260.336c-1.918-2.149-3.522-4.631-4.712-7.337l-0.072-0.178-6.833-5.466c-1.634-4.687-2.578-10.093-2.578-15.715s0.944-11.028 2.681-16.062l-0.104 0.346v-4.784c1.606-3.119 3.425-5.81 5.516-8.258l-0.050 0.058 267.854-256.237c7.084-6.001 16.325-9.649 26.421-9.649 22.643 0 40.997 18.354 40.997 40.997 0 9.925-3.526 19.024-9.393 26.116l0.054-0.070z" />
<glyph unicode="&#xe933;" glyph-name="information" d="M512 896.001c-259.206 0-469.334-210.128-469.334-469.334s210.128-469.334 469.334-469.334c259.206 0 469.334 210.128 469.334 469.334v0c0 259.206-210.128 469.334-469.334 469.334v0zM512 9.482c-230.405 0-417.185 186.78-417.185 417.185s186.78 417.185 417.185 417.185v0 0c230.405 0 417.185-186.78 417.185-417.185s-186.78-417.185-417.185-417.185v0zM514.607 504.888c-25.267-2.164-44.958-23.207-44.958-48.851 0-1.16 0.040-2.311 0.12-3.451l-0.009 0.154v-208.593c-0.121-1.277-0.189-2.761-0.189-4.261 0-25.463 19.835-46.292 44.898-47.88l0.14-0.008c24.493 2.372 43.483 22.85 43.483 47.766 0 1.543-0.073 3.069-0.215 4.575l0.014-0.192v208.593c0.193 1.6 0.304 3.455 0.304 5.335 0 24.742-19.148 45.014-43.433 46.805l-0.154 0.010zM512 687.407c-0.090 0.001-0.195 0.001-0.301 0.001-14.326 0-27.302-5.776-36.728-15.126l0.004 0.004c-9.070-9.701-14.755-22.666-15.122-36.952l-0.002-0.073c0.501-14.17 6.164-26.928 15.152-36.535l-0.030 0.033c9.399-9.218 22.287-14.906 36.504-14.906s27.105 5.688 36.511 14.915l-0.009-0.009c9.941 8.92 16.167 21.808 16.167 36.15 0 0.124-0.001 0.25-0.002 0.374v-0.019c-0.209 14.314-6.156 27.201-15.635 36.495l-0.009 0.009c-9.303 9.489-22.188 15.433-36.465 15.644h-0.039z" />
<glyph unicode="&#xe934;" glyph-name="information-triangle" d="M962.319 148.284l-370.185 657.38c-17.076 28.211-47.599 46.775-82.456 46.775-0.010 0-0.021 0-0.030 0h0.002c-0.138 0.001-0.302 0.001-0.467 0.001-35.022 0-65.712-18.548-82.786-46.353l-0.242-0.423-365.156-657.38c-8.497-14.088-13.524-31.103-13.524-49.286 0-36.547 20.302-68.35 50.243-84.751l0.503-0.251c13.916-8.232 30.665-13.093 48.551-13.093 0.612 0 1.227 0.007 1.836 0.017l-0.090-0.002h731.315c18.531 0.033 35.875 5.074 50.767 13.838l-0.47-0.256c28.028 17.473 46.402 48.129 46.402 83.079 0 18.75-5.288 36.262-14.454 51.131l0.242-0.422zM878.321 67.808h-733.83c-5.995 0.398-11.488 2.217-16.254 5.119l0.157-0.090c-7.065 4.591-12.375 11.366-15.016 19.356l-0.073 0.259c-0.639 2.453-1.008 5.271-1.008 8.173 0 5.85 1.489 11.35 4.112 16.145l-0.090-0.175 364.652 656.373c2.803 4.544 6.519 8.264 10.924 10.984l0.143 0.083c4.66 2.844 10.293 4.527 16.323 4.527 0.096 0 0.192-0.001 0.289-0.002h-0.014c11.767-0.19 22.071-6.294 28.087-15.461l0.080-0.13 369.178-657.883c2.539-4.369 4.037-9.615 4.037-15.212 0-0.309-0.006-0.62-0.013-0.928l0.001 0.046c0-0.006 0-0.010 0-0.015 0-17.702-14.069-32.119-31.636-32.677l-0.050-0.002zM508.64 330.859c24.079 1.792 42.939 21.77 42.939 46.153 0 1.459-0.069 2.904-0.2 4.326l0.012-0.183v201.186c0.15 1.384 0.232 2.986 0.232 4.612 0 24.299-18.933 44.176-42.854 45.678l-0.13 0.008c-23.649-2.551-41.9-22.404-41.9-46.521 0-1.327 0.055-2.644 0.165-3.945l-0.010 0.17v-201.186c-0.097-1.129-0.151-2.445-0.151-3.776 0-24.117 18.251-43.97 41.692-46.503l0.208-0.018zM476.45 240.327c-9.003-8.623-14.599-20.741-14.599-34.164 0-0.368 0.005-0.731 0.011-1.097l-0.001 0.053c0.289-13.614 5.586-25.935 14.12-35.248l-0.036 0.040c9.038-8.968 21.467-14.526 35.196-14.585h0.010c13.741 0.060 26.171 5.618 35.212 14.589l-0.004-0.004c8.891 9.066 14.379 21.496 14.379 35.208s-5.487 26.142-14.385 35.216l0.009-0.010c-9.037 8.745-21.366 14.133-34.956 14.133s-25.918-5.389-34.971-14.145l0.013 0.012z" />
<glyph unicode="&#xe935;" glyph-name="isologo" d="M491.246 895.633h44.92c122.172-6.676 231.039-58.719 311.047-139.416l0.033-0.033c82.846-84.561 133.974-200.473 133.974-328.327 0-89.207-24.89-172.599-68.103-243.615l1.174 2.076c-83.414-137.871-232.551-228.612-402.881-228.612-174.148 0-326.143 94.855-407.133 235.718l-1.208 2.279c-37.923 66.217-60.287 145.552-60.287 230.109 0 147.915 68.431 279.85 175.362 365.868l0.91 0.708c74.256 59.85 168.322 97.9 271.046 103.198l1.15 0.048zM457.724 825.237c-198.102-27.174-349.078-195.32-349.078-398.729 0-222.162 180.097-402.259 402.259-402.259s402.259 180.097 402.259 402.259c0 131.833-63.419 248.855-161.412 322.218l-1.048 0.751c-66.094 49.516-149.47 79.29-239.798 79.29-18.753 0-37.206-1.284-55.276-3.767l2.097 0.235zM261.288 462.532h144.143v-71.737h-144.143v-216.549h234.652v71.737h-162.244v72.406h144.143v216.549h-144.143v72.406h162.244v72.406h-234.652c0-72.406 0-144.813 0-217.221zM529.461 679.083v-71.737h164.925v-72.406h-144.143v-216.549h144.143v-72.406h-162.244v-71.737h234.652v215.88h-144.143v72.406h144.143v216.549z" />
<glyph unicode="&#xe936;" glyph-name="isotipo" d="M896.263 575.689c31.292 0 61.762 0 93.463 0v-55.791c-9.954 0.478-21.624 0.75-33.359 0.75-31.778 0-63.092-1.994-93.823-5.859l3.659 0.373c-29.739-5.167-53.686-25.693-63.637-52.952l-0.186-0.569c-3.462-9.926-5.462-21.372-5.462-33.282 0-23.364 7.691-44.934 20.681-62.311l-0.194 0.274c19.543-19.835 46.694-32.123 76.719-32.123 0.457 0 0.918 0.004 1.377 0.011l-0.069-0.002c31.292-1.444 61.762 0 93.875 0v-55.999c-35.202 0-70.821 0-106.23 0-0.214-0.004-0.47-0.004-0.724-0.004-36.881 0-70.632 13.392-96.656 35.588l0.207-0.172c-26.881 27.082-43.497 64.385-43.497 105.573 0 1.462 0.021 2.917 0.061 4.369l-0.004-0.214c-0.147 2.457-0.23 5.331-0.23 8.226 0 46.6 21.687 88.138 55.517 115.070l0.296 0.228c26.6 18.074 59.426 28.857 94.771 28.857 1.206 0 2.408-0.011 3.61-0.039l-0.179 0.004zM34.274 575.481h59.086v-297.895h-59.086v297.895zM203.503 549.75c54.35 32.938 120.64 21.409 180.756 23.674v-55.791c-9.879 0.453-21.465 0.712-33.113 0.712-29.676 0-58.962-1.68-87.76-4.952l3.525 0.324c-30.611-4.253-55.475-25.071-65.496-52.959l-0.179-0.565c-3.266-9.458-5.153-20.361-5.153-31.701 0-23.683 8.228-45.443 21.982-62.582l-0.151 0.196c19.947-18.263 46.635-29.456 75.936-29.456 0.661 0 1.325 0.004 1.982 0.018l-0.102-0.004c29.648 0 59.086 0 88.522 0v-56.41c-10.995-0.598-23.869-0.936-36.821-0.936-34.133 0-67.713 2.358-100.592 6.928l3.799-0.429c-40.361 8.465-73.562 33.771-92.491 68.055l-0.359 0.704c-32.323 64.849-17.501 154.816 45.707 195.169zM442.523 575.689c54.145 0 108.289 0 162.226 0 0.946 0.039 2.052 0.060 3.17 0.060 35.519 0 66.118-21.065 79.986-51.387l0.228-0.548c10.913-31.5 6.587-73.7-24.498-92.023 47.971-20.587 56.614-90.378 22.853-126.611-18.977-16.97-44.167-27.344-71.78-27.344-2.127 0-4.239 0.060-6.334 0.186l0.291-0.012h-166.14zM498.93 520.722v-62.793h93.26c1.729-0.207 3.736-0.324 5.768-0.324 12.094 0 23.212 4.155 32.017 11.11l-0.109-0.081c4.503 5.684 7.223 12.959 7.223 20.871 0 5.937-1.533 11.514-4.225 16.362l0.088-0.172c-6.418 9.012-16.827 14.819-28.593 14.819-1.313 0-2.611-0.074-3.888-0.214l0.158 0.014c-33.764 0-67.732 0-101.702 0zM498.93 403.372c0-23.674 0-47.559 0-71.436h110.76c1.498-0.193 3.226-0.303 4.987-0.303 12.253 0 23.261 5.353 30.801 13.848l0.039 0.043c3.448 5.483 5.492 12.148 5.492 19.297 0 11.346-5.157 21.49-13.254 28.21l-0.060 0.048c-10.081 6.474-22.384 10.326-35.588 10.326-1.968 0-3.916-0.088-5.838-0.256l0.249 0.018h-97.585z" />
<glyph unicode="&#xe937;" glyph-name="justificado" d="M512 896.001c-259.206 0-469.334-210.128-469.334-469.334s210.128-469.334 469.334-469.334c259.206 0 469.334 210.128 469.334 469.334v0c0 259.206-210.128 469.334-469.334 469.334v0zM512 9.482c-230.405 0-417.185 186.78-417.185 417.185s186.78 417.185 417.185 417.185v0 0c230.405 0 417.185-186.78 417.185-417.185s-186.78-417.185-417.185-417.185v0zM578.229 335.928c0.018-0.702 0.030-1.529 0.030-2.357 0-18.428-5.252-35.63-14.342-50.192l0.232 0.4c-10.863-12.474-26.773-20.314-44.513-20.314-2.693 0-5.342 0.181-7.938 0.53l0.303-0.033c-1.011-0.046-2.197-0.072-3.39-0.072-10.805 0-21.11 2.134-30.52 6.002l0.535-0.194c-7.636 3.421-13.964 8.579-18.684 14.993l-0.090 0.128c-4.57 7.34-8.015 15.91-9.827 25.066l-0.080 0.488c-1.991 9.955-3.13 21.402-3.13 33.114 0 0.092 0 0.184 0 0.275v-0.013 17.209h-55.799v-25.553c-0.192-2.533-0.301-5.486-0.301-8.463 0-31.192 12.011-59.579 31.661-80.787l-0.071 0.077c21.264-17.804 48.913-28.616 79.085-28.616 3.734 0 7.43 0.165 11.081 0.491l-0.473-0.033c1.294-0.038 2.816-0.060 4.345-0.060 19.214 0 37.617 3.464 54.622 9.801l-1.081-0.353c14.75 5.952 27.275 14.629 37.497 25.498l0.051 0.055c9.038 9.989 16.019 22.023 20.158 35.31l0.181 0.672c3.571 12.331 5.661 26.504 5.736 41.154v305.108h-55.276z" />
<glyph unicode="&#xe938;" glyph-name="label" d="M979.713 501.741l-41.509 270.588c-7.868 39.958-38.854 70.944-78.183 78.709l-0.63 0.103-270.063 42.559c-3.971 0.413-8.58 0.648-13.244 0.648-35.477 0-67.771-13.628-91.932-35.936l0.093 0.084-419.805-418.229c-12.895-13.692-20.818-32.192-20.818-52.541s7.925-38.849 20.855-52.581l-0.036 0.038 355.705-355.179c13.642-13.011 32.156-21.016 52.541-21.016s38.9 8.006 52.572 21.045l-0.031-0.029 420.331 417.179c21.605 24.060 34.816 56.041 34.816 91.104 0 4.738-0.241 9.418-0.712 14.032l0.048-0.58zM907.733 431.335l-417.179-417.179c-4.262-4.179-10.105-6.759-16.55-6.759s-12.288 2.579-16.555 6.763l0.004-0.004-355.705 354.129c-4.335 4.287-7.021 10.237-7.021 16.813s2.686 12.526 7.018 16.811l0.002 0.002 417.179 418.755c14.965 12.865 34.581 20.699 56.023 20.699 2.102 0 4.187-0.076 6.252-0.224l-0.276 0.015 270.588-41.509c17.547-4.411 31.050-18.089 35.138-35.404l0.064-0.324 41.509-270.063c0.185-2.094 0.29-4.53 0.29-6.991 0-21.299-7.872-40.761-20.865-55.631l0.085 0.099zM678.651 692.992c-13.194-12.973-21.371-31.014-21.371-50.965s8.176-37.992 21.362-50.956l0.011-0.011c13.15-13.303 31.401-21.541 51.573-21.541 40.044 0 72.508 32.462 72.508 72.508s-32.462 72.508-72.508 72.508c-20.174 0-38.422-8.238-51.567-21.536l-0.007-0.007z" />
<glyph unicode="&#xe939;" glyph-name="calendar" d="M928.13 687.592v3.754c0.001 0.152 0.001 0.331 0.001 0.511 0 32.447-13.421 61.76-35.015 82.69l-0.031 0.030c-21.228 21.032-50.359 34.119-82.546 34.418h-94.551v51.939c-0.005 10.022-4.069 19.091-10.638 25.657v0c-5.97 5.82-14.137 9.41-23.145 9.41-0.444 0-0.885-0.009-1.324-0.026l0.063 0.002c-8.638-0.98-16.226-4.863-21.898-10.634l-0.005-0.006c-5.819-6.238-9.39-14.64-9.39-23.875 0-0.187 0.002-0.373 0.005-0.56v0.029-51.939h-273.467v56.32c-0.661 17.105-14.686 30.72-31.892 30.72-0.669 0-1.331-0.020-1.991-0.061l0.090 0.005h-4.381c-16.888-1.309-30.097-15.337-30.097-32.448 0-0.693 0.022-1.38 0.064-2.062l-0.005 0.094v-51.939h-97.622c-32.884-1.23-62.113-15.919-82.506-38.689l-0.098-0.11c-19.793-21.179-31.947-49.717-31.947-81.094 0-0.971 0.011-1.939 0.034-2.904l-0.003 0.143v-612.641c0.356-64.705 52.891-117.021 117.646-117.021 0.001 0 0.001 0 0.002 0h600.123c63.641 1.712 114.579 53.712 114.579 117.608 0 1.334-0.022 2.664-0.066 3.988l0.006-0.192v608.885zM214.74 738.905h93.241v-56.32c1.006-16.95 14.846-30.353 31.885-30.662h6.288c8.803 0.789 16.499 4.975 21.866 11.221l0.036 0.043c5.085 5.545 8.201 12.968 8.201 21.118 0 0.715-0.024 1.427-0.072 2.131l0.006-0.096v52.566h271.589v-56.32c0.717-8.821 4.922-16.539 11.217-21.863l0.047-0.038c5.343-5.456 12.787-8.838 21.020-8.838 0.752 0 1.496 0.029 2.233 0.083l-0.099-0.006h4.381c16.888 1.309 30.097 15.337 30.097 32.448 0 0.693-0.022 1.38-0.064 2.062l0.005-0.094v52.566h98.873c25.363-1.932 45.211-22.987 45.211-48.678 0-1.369-0.055-2.723-0.166-4.063l0.011 0.176v-122.028h-696.494v125.155c-0.169 0.753-0.267 1.617-0.267 2.503s0.098 1.75 0.281 2.583l-0.014-0.078c2.299 25.027 23.187 44.475 48.617 44.475 0.728 0 1.453-0.015 2.172-0.048l-0.102 0.004zM811.109 26.766h-602.001c-13.458 0.827-25.351 6.921-33.754 16.226l-0.038 0.043c-7.308 8.724-11.746 20.067-11.746 32.447 0 2.46 0.175 4.88 0.515 7.249l-0.033-0.272v411.765h695.869v-414.892c0.163-0.847 0.255-1.82 0.255-2.816s-0.093-1.969-0.271-2.914l0.015 0.098c-1.662-25.876-22.754-46.314-48.751-46.933l-0.059-0.001zM471.309 264.563v0c21.092 10.36 35.355 31.689 35.355 56.346 0 2.194-0.113 4.364-0.334 6.5l0.022-0.268c0 41.302-33.167 66.333-86.983 66.333-23.598-0.021-46.442-3.218-68.139-9.185l1.806 0.424v-30.663c18.559 4.552 40.055 7.481 62.125 8.125l0.452 0.011c40.051 0 51.315-18.147 51.315-41.302 0.016-0.426 0.027-0.924 0.027-1.425 0-10.678-4.313-20.347-11.292-27.362l0.002 0.002c-8.002-7.398-18.744-11.935-30.545-11.935-0.702 0-1.399 0.016-2.095 0.048l0.099-0.004h-41.927v-30.663h42.553c1.15 0.101 2.487 0.16 3.839 0.16 12.339 0 23.553-4.827 31.852-12.694l-0.021 0.019c7.359-6.771 11.957-16.449 11.957-27.202 0-0.778-0.024-1.55-0.072-2.316l0.006 0.105c0-36.921-32.541-43.805-57.571-43.805-0.159 0-0.347-0.001-0.537-0.001-23.804 0-46.917 2.967-68.985 8.55l1.937-0.415v-31.914c19.762-5.907 42.528-9.531 66.066-10.008l0.266-0.005c52.566 0 98.247 20.025 98.247 76.972-0.243 25.996-16.3 48.183-39.005 57.421l-0.419 0.15zM538.268 341.533l73.216 0.627v-211.513h48.81v257.823l-122.028-15.018v-31.914z" />
<glyph unicode="&#xe93a;" glyph-name="left2" d="M938.019 470.468h-756.503l275.275 277.274c4.381 6.322 7.003 14.159 7.003 22.603 0 22.087-17.903 39.989-39.989 39.989-8.615 0-16.591-2.725-23.119-7.358l0.123 0.081-344.59-344.59c-1.869-2.095-3.436-4.518-4.595-7.156l-0.068-0.174c-0.099-0.8-0.153-1.727-0.153-2.668s0.056-1.864 0.164-2.779l-0.009 0.111c-3.48-5.378-5.548-11.951-5.548-19.008 0-4.424 0.815-8.659 2.297-12.562l-0.081 0.243c0.927-2.038 2.041-3.79 3.362-5.368l-0.028 0.037c1.232-2.815 2.797-5.236 4.688-7.36l-0.026 0.027 344.59-344.59c7.383-8.72 18.338-14.217 30.582-14.217 22.087 0 39.989 17.903 39.989 39.989 0 12.406-5.65 23.495-14.517 30.83l-0.065 0.054-275.275 276.609h756.503c22.087 0 39.989 17.903 39.989 39.989s-17.903 39.989-39.989 39.989v0z" />
<glyph unicode="&#xe93b;" glyph-name="list" d="M464.977 825.168h466.654c16.437 0 29.761-13.324 29.761-29.761v-7.737c0-16.437-13.324-29.761-29.761-29.761h-466.654c-16.437 0-29.761 13.324-29.761 29.761v7.737c0 16.437 13.324 29.761 29.761 29.761zM464.977 459.701h466.654c16.437 0 29.761-13.324 29.761-29.761v-7.737c0-16.437-13.324-29.761-29.761-29.761h-466.654c-16.437 0-29.761 13.324-29.761 29.761v7.737c0 16.437 13.324 29.761 29.761 29.761zM464.977 95.425h466.654c16.437 0 29.761-13.324 29.761-29.761v-7.737c0-16.437-13.324-29.761-29.761-29.761h-466.654c-16.437 0-29.761 13.324-29.761 29.761v7.737c0 16.437 13.324 29.761 29.761 29.761zM166.77 165.662c-57.525-0.004-104.158-46.638-104.158-104.163 0-57.528 46.635-104.163 104.163-104.163s104.163 46.635 104.163 104.163c0 0.419-0.003 0.837-0.008 1.254l0.001-0.063c-0.672 57.013-47.047 102.973-104.158 102.973-0.003 0-0.005 0-0.008 0v0zM166.77 16.856c-24.649 0.010-44.627 19.992-44.627 44.642 0 24.654 19.987 44.642 44.642 44.642 24.236 0 43.962-19.314 44.625-43.391l0.001-0.061c0.003-0.178 0.004-0.388 0.004-0.6 0-24.776-19.918-44.899-44.614-45.233h-0.032zM166.77 529.938c-57.528 0-104.163-46.635-104.163-104.163s46.635-104.163 104.163-104.163c57.528 0 104.163 46.635 104.163 104.163v0c0 57.528-46.635 104.163-104.163 104.163v0zM166.77 381.133c-24.654 0-44.642 19.987-44.642 44.642s19.987 44.642 44.642 44.642c24.654 0 44.642-19.987 44.642-44.642v0c-0.331-24.52-20.12-44.311-44.61-44.642h-0.032zM166.77 896.001c-57.528 0-104.163-46.635-104.163-104.163s46.635-104.163 104.163-104.163c57.528 0 104.163 46.635 104.163 104.163v0c-0.336 57.392-46.771 103.829-104.132 104.163h-0.033zM166.77 747.195c-24.654 0-44.642 19.987-44.642 44.642s19.987 44.642 44.642 44.642c24.654 0 44.642-19.987 44.642-44.642v0c-0.331-24.52-20.12-44.311-44.61-44.642h-0.032z" />
<glyph unicode="&#xe93c;" glyph-name="list-fill" d="M464.976 825.168h466.654c16.437 0 29.761-13.324 29.761-29.761v-7.737c0-16.437-13.324-29.761-29.761-29.761h-466.654c-16.437 0-29.761 13.324-29.761 29.761v7.737c0 16.437 13.324 29.761 29.761 29.761zM464.976 459.701h466.654c16.437 0 29.761-13.324 29.761-29.761v-7.737c0-16.437-13.324-29.761-29.761-29.761h-466.654c-16.437 0-29.761 13.324-29.761 29.761v7.737c0 16.437 13.324 29.761 29.761 29.761zM464.976 95.425h466.654c16.437 0 29.761-13.324 29.761-29.761v-7.737c0-16.437-13.324-29.761-29.761-29.761h-466.654c-16.437 0-29.761 13.324-29.761 29.761v7.737c0 16.437 13.324 29.761 29.761 29.761zM270.935 61.498c0-57.528-46.635-104.163-104.163-104.163s-104.163 46.635-104.163 104.163c0 57.528 46.635 104.163 104.163 104.163s104.163-46.635 104.163-104.163zM270.935 425.775c0-57.528-46.635-104.163-104.163-104.163s-104.163 46.635-104.163 104.163c0 57.528 46.635 104.163 104.163 104.163s104.163-46.635 104.163-104.163zM270.935 791.836c0-57.528-46.635-104.163-104.163-104.163s-104.163 46.635-104.163 104.163c0 57.528 46.635 104.163 104.163 104.163s104.163-46.635 104.163-104.163z" />
</font>
</defs>
</svg>
